<svg width="180" height="110" viewBox="0 0 180 110" fill="none" xmlns="http://www.w3.org/2000/svg">
<path opacity="0.05" d="M173.99 5.02141L175.129 5.99738L175.129 5.99738L173.99 5.02141ZM178.101 1.85389C178.037 1.02791 177.316 0.409967 176.49 0.47367L163.03 1.51173C162.204 1.57543 161.586 2.29665 161.649 3.12263C161.713 3.9486 162.434 4.56655 163.26 4.50285L175.225 3.58013L176.148 15.5446C176.211 16.3706 176.932 16.9885 177.758 16.9248C178.584 16.8611 179.202 16.1399 179.139 15.3139L178.101 1.85389ZM175.129 5.99738L177.744 2.94519L175.466 0.993264L172.851 4.04545L175.129 5.99738ZM1.31518 109.33C69.0154 94.8743 130.087 58.5668 175.129 5.99738L172.851 4.04545C128.237 56.1154 67.7456 92.0778 0.688723 106.396L1.31518 109.33Z" fill="black"/>
</svg>
