<svg width="904" height="53" viewBox="0 0 904 53" fill="none" xmlns="http://www.w3.org/2000/svg">
<path d="M6.45 15.7414C7.41667 14.4081 8.73333 13.3247 10.4 12.4914C12.1 11.6247 13.9833 11.1914 16.05 11.1914C18.4833 11.1914 20.6833 11.7747 22.65 12.9414C24.6167 14.1081 26.1667 15.7747 27.3 17.9414C28.4333 20.0747 29 22.5247 29 25.2914C29 28.0581 28.4333 30.5414 27.3 32.7414C26.1667 34.9081 24.6 36.6081 22.6 37.8414C20.6333 39.0414 18.45 39.6414 16.05 39.6414C13.9167 39.6414 12.0167 39.2247 10.35 38.3914C8.71667 37.5581 7.41667 36.4914 6.45 35.1914V39.1914H0.75V2.19141H6.45V15.7414ZM23.2 25.2914C23.2 23.3914 22.8 21.7581 22 20.3914C21.2333 18.9914 20.2 17.9414 18.9 17.2414C17.6333 16.5081 16.2667 16.1414 14.8 16.1414C13.3667 16.1414 12 16.5081 10.7 17.2414C9.43333 17.9747 8.4 19.0414 7.6 20.4414C6.83333 21.8414 6.45 23.4914 6.45 25.3914C6.45 27.2914 6.83333 28.9581 7.6 30.3914C8.4 31.7914 9.43333 32.8581 10.7 33.5914C12 34.3247 13.3667 34.6914 14.8 34.6914C16.2667 34.6914 17.6333 34.3247 18.9 33.5914C20.2 32.8247 21.2333 31.7247 22 30.2914C22.8 28.8581 23.2 27.1914 23.2 25.2914ZM32.7367 25.2914C32.7367 22.5247 33.3034 20.0747 34.4367 17.9414C35.6034 15.8081 37.1701 14.1581 39.1367 12.9914C41.1367 11.7914 43.3367 11.1914 45.7367 11.1914C47.9034 11.1914 49.7867 11.6247 51.3867 12.4914C53.0201 13.3247 54.3201 14.3747 55.2867 15.6414V11.6414H61.0367V39.1914H55.2867V35.0914C54.3201 36.3914 53.0034 37.4747 51.3367 38.3414C49.6701 39.2081 47.7701 39.6414 45.6367 39.6414C43.2701 39.6414 41.1034 39.0414 39.1367 37.8414C37.1701 36.6081 35.6034 34.9081 34.4367 32.7414C33.3034 30.5414 32.7367 28.0581 32.7367 25.2914ZM55.2867 25.3914C55.2867 23.4914 54.8867 21.8414 54.0867 20.4414C53.3201 19.0414 52.3034 17.9747 51.0367 17.2414C49.7701 16.5081 48.4034 16.1414 46.9367 16.1414C45.4701 16.1414 44.1034 16.5081 42.8367 17.2414C41.5701 17.9414 40.5367 18.9914 39.7367 20.3914C38.9701 21.7581 38.5867 23.3914 38.5867 25.2914C38.5867 27.1914 38.9701 28.8581 39.7367 30.2914C40.5367 31.7247 41.5701 32.8247 42.8367 33.5914C44.1367 34.3247 45.5034 34.6914 46.9367 34.6914C48.4034 34.6914 49.7701 34.3247 51.0367 33.5914C52.3034 32.8581 53.3201 31.7914 54.0867 30.3914C54.8867 28.9581 55.2867 27.2914 55.2867 25.3914ZM74.2234 2.19141V39.1914H68.5234V2.19141H74.2234ZM87.407 2.19141V39.1914H81.707V2.19141H87.407ZM113.579 15.6414C114.412 14.2414 115.512 13.1581 116.879 12.3914C118.279 11.5914 119.929 11.1914 121.829 11.1914V17.0914H120.379C118.146 17.0914 116.446 17.6581 115.279 18.7914C114.146 19.9247 113.579 21.8914 113.579 24.6914V39.1914H107.879V11.6414H113.579V15.6414ZM139.018 39.6414C136.418 39.6414 134.068 39.0581 131.968 37.8914C129.868 36.6914 128.218 35.0247 127.018 32.8914C125.818 30.7247 125.218 28.2247 125.218 25.3914C125.218 22.5914 125.835 20.1081 127.068 17.9414C128.302 15.7747 129.985 14.1081 132.118 12.9414C134.252 11.7747 136.635 11.1914 139.268 11.1914C141.902 11.1914 144.285 11.7747 146.418 12.9414C148.552 14.1081 150.235 15.7747 151.468 17.9414C152.702 20.1081 153.318 22.5914 153.318 25.3914C153.318 28.1914 152.685 30.6747 151.418 32.8414C150.152 35.0081 148.418 36.6914 146.218 37.8914C144.052 39.0581 141.652 39.6414 139.018 39.6414ZM139.018 34.6914C140.485 34.6914 141.852 34.3414 143.118 33.6414C144.418 32.9414 145.468 31.8914 146.268 30.4914C147.068 29.0914 147.468 27.3914 147.468 25.3914C147.468 23.3914 147.085 21.7081 146.318 20.3414C145.552 18.9414 144.535 17.8914 143.268 17.1914C142.002 16.4914 140.635 16.1414 139.168 16.1414C137.702 16.1414 136.335 16.4914 135.068 17.1914C133.835 17.8914 132.852 18.9414 132.118 20.3414C131.385 21.7081 131.018 23.3914 131.018 25.3914C131.018 28.3581 131.768 30.6581 133.268 32.2914C134.802 33.8914 136.718 34.6914 139.018 34.6914ZM164.653 2.19141V39.1914H158.953V2.19141H164.653ZM177.837 2.19141V39.1914H172.137V2.19141H177.837ZM188.22 7.99141C187.187 7.99141 186.32 7.64141 185.62 6.9414C184.92 6.24141 184.57 5.37474 184.57 4.3414C184.57 3.30807 184.92 2.4414 185.62 1.74141C186.32 1.0414 187.187 0.691404 188.22 0.691404C189.22 0.691404 190.07 1.0414 190.77 1.74141C191.47 2.4414 191.82 3.30807 191.82 4.3414C191.82 5.37474 191.47 6.24141 190.77 6.9414C190.07 7.64141 189.22 7.99141 188.22 7.99141ZM191.02 11.6414V39.1914H185.32V11.6414H191.02ZM212.404 11.1914C214.571 11.1914 216.504 11.6414 218.204 12.5414C219.937 13.4414 221.287 14.7747 222.254 16.5414C223.221 18.3081 223.704 20.4414 223.704 22.9414V39.1914H218.054V23.7914C218.054 21.3247 217.437 19.4414 216.204 18.1414C214.971 16.8081 213.287 16.1414 211.154 16.1414C209.021 16.1414 207.321 16.8081 206.054 18.1414C204.821 19.4414 204.204 21.3247 204.204 23.7914V39.1914H198.504V11.6414H204.204V14.7914C205.137 13.6581 206.321 12.7747 207.754 12.1414C209.221 11.5081 210.771 11.1914 212.404 11.1914ZM242.075 11.1914C244.208 11.1914 246.091 11.6247 247.725 12.4914C249.391 13.3247 250.691 14.3747 251.625 15.6414V11.6414H257.375V39.6414C257.375 42.1747 256.841 44.4247 255.775 46.3914C254.708 48.3914 253.158 49.9581 251.125 51.0914C249.125 52.2247 246.725 52.7914 243.925 52.7914C240.191 52.7914 237.091 51.9081 234.625 50.1414C232.158 48.4081 230.758 46.0414 230.425 43.0414H236.075C236.508 44.4747 237.425 45.6247 238.825 46.4914C240.258 47.3914 241.958 47.8414 243.925 47.8414C246.225 47.8414 248.075 47.1414 249.475 45.7414C250.908 44.3414 251.625 42.3081 251.625 39.6414V35.0414C250.658 36.3414 249.341 37.4414 247.675 38.3414C246.041 39.2081 244.175 39.6414 242.075 39.6414C239.675 39.6414 237.475 39.0414 235.475 37.8414C233.508 36.6081 231.941 34.9081 230.775 32.7414C229.641 30.5414 229.075 28.0581 229.075 25.2914C229.075 22.5247 229.641 20.0747 230.775 17.9414C231.941 15.8081 233.508 14.1581 235.475 12.9914C237.475 11.7914 239.675 11.1914 242.075 11.1914ZM251.625 25.3914C251.625 23.4914 251.225 21.8414 250.425 20.4414C249.658 19.0414 248.641 17.9747 247.375 17.2414C246.108 16.5081 244.741 16.1414 243.275 16.1414C241.808 16.1414 240.441 16.5081 239.175 17.2414C237.908 17.9414 236.875 18.9914 236.075 20.3914C235.308 21.7581 234.925 23.3914 234.925 25.2914C234.925 27.1914 235.308 28.8581 236.075 30.2914C236.875 31.7247 237.908 32.8247 239.175 33.5914C240.475 34.3247 241.841 34.6914 243.275 34.6914C244.741 34.6914 246.108 34.3247 247.375 33.5914C248.641 32.8581 249.658 31.7914 250.425 30.3914C251.225 28.9581 251.625 27.2914 251.625 25.3914ZM284.5 16.2914V31.5414C284.5 32.5747 284.733 33.3247 285.2 33.7914C285.7 34.2247 286.533 34.4414 287.7 34.4414H291.2V39.1914H286.7C284.133 39.1914 282.166 38.5914 280.8 37.3914C279.433 36.1914 278.75 34.2414 278.75 31.5414V16.2914H275.5V11.6414H278.75V4.79141H284.5V11.6414H291.2V16.2914H284.5ZM308.403 39.6414C305.803 39.6414 303.453 39.0581 301.353 37.8914C299.253 36.6914 297.603 35.0247 296.403 32.8914C295.203 30.7247 294.603 28.2247 294.603 25.3914C294.603 22.5914 295.22 20.1081 296.453 17.9414C297.686 15.7747 299.37 14.1081 301.503 12.9414C303.636 11.7747 306.02 11.1914 308.653 11.1914C311.286 11.1914 313.67 11.7747 315.803 12.9414C317.936 14.1081 319.62 15.7747 320.853 17.9414C322.086 20.1081 322.703 22.5914 322.703 25.3914C322.703 28.1914 322.07 30.6747 320.803 32.8414C319.536 35.0081 317.803 36.6914 315.603 37.8914C313.436 39.0581 311.036 39.6414 308.403 39.6414ZM308.403 34.6914C309.87 34.6914 311.236 34.3414 312.503 33.6414C313.803 32.9414 314.853 31.8914 315.653 30.4914C316.453 29.0914 316.853 27.3914 316.853 25.3914C316.853 23.3914 316.47 21.7081 315.703 20.3414C314.936 18.9414 313.92 17.8914 312.653 17.1914C311.386 16.4914 310.02 16.1414 308.553 16.1414C307.086 16.1414 305.72 16.4914 304.453 17.1914C303.22 17.8914 302.236 18.9414 301.503 20.3414C300.77 21.7081 300.403 23.3914 300.403 25.3914C300.403 28.3581 301.153 30.6581 302.653 32.2914C304.186 33.8914 306.103 34.6914 308.403 34.6914ZM347.026 15.7414C347.993 14.4081 349.31 13.3247 350.976 12.4914C352.676 11.6247 354.56 11.1914 356.626 11.1914C359.06 11.1914 361.26 11.7747 363.226 12.9414C365.193 14.1081 366.743 15.7747 367.876 17.9414C369.01 20.0747 369.576 22.5247 369.576 25.2914C369.576 28.0581 369.01 30.5414 367.876 32.7414C366.743 34.9081 365.176 36.6081 363.176 37.8414C361.21 39.0414 359.026 39.6414 356.626 39.6414C354.493 39.6414 352.593 39.2247 350.926 38.3914C349.293 37.5581 347.993 36.4914 347.026 35.1914V39.1914H341.326V2.19141H347.026V15.7414ZM363.776 25.2914C363.776 23.3914 363.376 21.7581 362.576 20.3914C361.81 18.9914 360.776 17.9414 359.476 17.2414C358.21 16.5081 356.843 16.1414 355.376 16.1414C353.943 16.1414 352.576 16.5081 351.276 17.2414C350.01 17.9747 348.976 19.0414 348.176 20.4414C347.41 21.8414 347.026 23.4914 347.026 25.3914C347.026 27.2914 347.41 28.9581 348.176 30.3914C348.976 31.7914 350.01 32.8581 351.276 33.5914C352.576 34.3247 353.943 34.6914 355.376 34.6914C356.843 34.6914 358.21 34.3247 359.476 33.5914C360.776 32.8247 361.81 31.7247 362.576 30.2914C363.376 28.8581 363.776 27.1914 363.776 25.2914ZM387.163 39.6414C384.563 39.6414 382.213 39.0581 380.113 37.8914C378.013 36.6914 376.363 35.0247 375.163 32.8914C373.963 30.7247 373.363 28.2247 373.363 25.3914C373.363 22.5914 373.98 20.1081 375.213 17.9414C376.446 15.7747 378.13 14.1081 380.263 12.9414C382.396 11.7747 384.78 11.1914 387.413 11.1914C390.046 11.1914 392.43 11.7747 394.563 12.9414C396.696 14.1081 398.38 15.7747 399.613 17.9414C400.846 20.1081 401.463 22.5914 401.463 25.3914C401.463 28.1914 400.83 30.6747 399.563 32.8414C398.296 35.0081 396.563 36.6914 394.363 37.8914C392.196 39.0581 389.796 39.6414 387.163 39.6414ZM387.163 34.6914C388.63 34.6914 389.996 34.3414 391.263 33.6414C392.563 32.9414 393.613 31.8914 394.413 30.4914C395.213 29.0914 395.613 27.3914 395.613 25.3914C395.613 23.3914 395.23 21.7081 394.463 20.3414C393.696 18.9414 392.68 17.8914 391.413 17.1914C390.146 16.4914 388.78 16.1414 387.313 16.1414C385.846 16.1414 384.48 16.4914 383.213 17.1914C381.98 17.8914 380.996 18.9414 380.263 20.3414C379.53 21.7081 379.163 23.3914 379.163 25.3914C379.163 28.3581 379.913 30.6581 381.413 32.2914C382.946 33.8914 384.863 34.6914 387.163 34.6914ZM419.048 39.6414C416.448 39.6414 414.098 39.0581 411.998 37.8914C409.898 36.6914 408.248 35.0247 407.048 32.8914C405.848 30.7247 405.248 28.2247 405.248 25.3914C405.248 22.5914 405.864 20.1081 407.098 17.9414C408.331 15.7747 410.014 14.1081 412.148 12.9414C414.281 11.7747 416.664 11.1914 419.298 11.1914C421.931 11.1914 424.314 11.7747 426.448 12.9414C428.581 14.1081 430.264 15.7747 431.498 17.9414C432.731 20.1081 433.348 22.5914 433.348 25.3914C433.348 28.1914 432.714 30.6747 431.448 32.8414C430.181 35.0081 428.448 36.6914 426.248 37.8914C424.081 39.0581 421.681 39.6414 419.048 39.6414ZM419.048 34.6914C420.514 34.6914 421.881 34.3414 423.148 33.6414C424.448 32.9414 425.498 31.8914 426.298 30.4914C427.098 29.0914 427.498 27.3914 427.498 25.3914C427.498 23.3914 427.114 21.7081 426.348 20.3414C425.581 18.9414 424.564 17.8914 423.298 17.1914C422.031 16.4914 420.664 16.1414 419.198 16.1414C417.731 16.1414 416.364 16.4914 415.098 17.1914C413.864 17.8914 412.881 18.9414 412.148 20.3414C411.414 21.7081 411.048 23.3914 411.048 25.3914C411.048 28.3581 411.798 30.6581 413.298 32.2914C414.831 33.8914 416.748 34.6914 419.048 34.6914ZM449.882 25.4414L462.582 39.1914H454.882L444.682 27.3414V39.1914H438.982V2.19141H444.682V23.6914L454.682 11.6414H462.582L449.882 25.4414ZM504.456 11.6414L487.556 52.1414H481.656L487.256 38.7414L476.406 11.6414H482.756L490.506 32.6414L498.556 11.6414H504.456ZM520.708 39.6414C518.108 39.6414 515.758 39.0581 513.658 37.8914C511.558 36.6914 509.908 35.0247 508.708 32.8914C507.508 30.7247 506.908 28.2247 506.908 25.3914C506.908 22.5914 507.524 20.1081 508.758 17.9414C509.991 15.7747 511.674 14.1081 513.808 12.9414C515.941 11.7747 518.324 11.1914 520.958 11.1914C523.591 11.1914 525.974 11.7747 528.108 12.9414C530.241 14.1081 531.924 15.7747 533.158 17.9414C534.391 20.1081 535.008 22.5914 535.008 25.3914C535.008 28.1914 534.374 30.6747 533.108 32.8414C531.841 35.0081 530.108 36.6914 527.908 37.8914C525.741 39.0581 523.341 39.6414 520.708 39.6414ZM520.708 34.6914C522.174 34.6914 523.541 34.3414 524.808 33.6414C526.108 32.9414 527.158 31.8914 527.958 30.4914C528.758 29.0914 529.158 27.3914 529.158 25.3914C529.158 23.3914 528.774 21.7081 528.008 20.3414C527.241 18.9414 526.224 17.8914 524.958 17.1914C523.691 16.4914 522.324 16.1414 520.858 16.1414C519.391 16.1414 518.024 16.4914 516.758 17.1914C515.524 17.8914 514.541 18.9414 513.808 20.3414C513.074 21.7081 512.708 23.3914 512.708 25.3914C512.708 28.3581 513.458 30.6581 514.958 32.2914C516.491 33.8914 518.408 34.6914 520.708 34.6914ZM565.593 11.6414V39.1914H559.893V35.9414C558.993 37.0747 557.809 37.9747 556.343 38.6414C554.909 39.2747 553.376 39.5914 551.743 39.5914C549.576 39.5914 547.626 39.1414 545.893 38.2414C544.193 37.3414 542.843 36.0081 541.843 34.2414C540.876 32.4747 540.393 30.3414 540.393 27.8414V11.6414H546.043V26.9914C546.043 29.4581 546.659 31.3581 547.893 32.6914C549.126 33.9914 550.809 34.6414 552.943 34.6414C555.076 34.6414 556.759 33.9914 557.993 32.6914C559.259 31.3581 559.893 29.4581 559.893 26.9914V11.6414H565.593ZM578.813 15.6414C579.647 14.2414 580.747 13.1581 582.113 12.3914C583.513 11.5914 585.163 11.1914 587.063 11.1914V17.0914H585.613C583.38 17.0914 581.68 17.6581 580.513 18.7914C579.38 19.9247 578.813 21.8914 578.813 24.6914V39.1914H573.113V11.6414H578.813V15.6414ZM616.641 4.4414C620.341 4.4414 623.574 5.15807 626.341 6.59141C629.141 7.99141 631.291 10.0247 632.791 12.6914C634.324 15.3247 635.091 18.4081 635.091 21.9414C635.091 25.4747 634.324 28.5414 632.791 31.1414C631.291 33.7414 629.141 35.7414 626.341 37.1414C623.574 38.5081 620.341 39.1914 616.641 39.1914H605.291V4.4414H616.641ZM616.641 34.5414C620.708 34.5414 623.824 33.4414 625.991 31.2414C628.158 29.0414 629.241 25.9414 629.241 21.9414C629.241 17.9081 628.158 14.7581 625.991 12.4914C623.824 10.2247 620.708 9.0914 616.641 9.0914H610.991V34.5414H616.641ZM665.99 24.7414C665.99 25.7747 665.924 26.7081 665.79 27.5414H644.74C644.907 29.7414 645.724 31.5081 647.19 32.8414C648.657 34.1747 650.457 34.8414 652.59 34.8414C655.657 34.8414 657.824 33.5581 659.09 30.9914H665.24C664.407 33.5247 662.89 35.6081 660.69 37.2414C658.524 38.8414 655.824 39.6414 652.59 39.6414C649.957 39.6414 647.59 39.0581 645.49 37.8914C643.424 36.6914 641.79 35.0247 640.59 32.8914C639.424 30.7247 638.84 28.2247 638.84 25.3914C638.84 22.5581 639.407 20.0747 640.54 17.9414C641.707 15.7747 643.324 14.1081 645.39 12.9414C647.49 11.7747 649.89 11.1914 652.59 11.1914C655.19 11.1914 657.507 11.7581 659.54 12.8914C661.574 14.0247 663.157 15.6247 664.29 17.6914C665.424 19.7247 665.99 22.0747 665.99 24.7414ZM660.04 22.9414C660.007 20.8414 659.257 19.1581 657.79 17.8914C656.324 16.6247 654.507 15.9914 652.34 15.9914C650.374 15.9914 648.69 16.6247 647.29 17.8914C645.89 19.1247 645.057 20.8081 644.79 22.9414H660.04ZM704.95 11.1914C707.116 11.1914 709.05 11.6414 710.75 12.5414C712.483 13.4414 713.833 14.7747 714.8 16.5414C715.8 18.3081 716.3 20.4414 716.3 22.9414V39.1914H710.65V23.7914C710.65 21.3247 710.033 19.4414 708.8 18.1414C707.566 16.8081 705.883 16.1414 703.75 16.1414C701.616 16.1414 699.916 16.8081 698.65 18.1414C697.416 19.4414 696.8 21.3247 696.8 23.7914V39.1914H691.15V23.7914C691.15 21.3247 690.533 19.4414 689.3 18.1414C688.066 16.8081 686.383 16.1414 684.25 16.1414C682.116 16.1414 680.416 16.8081 679.15 18.1414C677.916 19.4414 677.3 21.3247 677.3 23.7914V39.1914H671.6V11.6414H677.3V14.7914C678.233 13.6581 679.416 12.7747 680.85 12.1414C682.283 11.5081 683.816 11.1914 685.45 11.1914C687.65 11.1914 689.616 11.6581 691.35 12.5914C693.083 13.5247 694.416 14.8747 695.35 16.6414C696.183 14.9747 697.483 13.6581 699.25 12.6914C701.016 11.6914 702.916 11.1914 704.95 11.1914ZM735.503 39.6414C732.903 39.6414 730.553 39.0581 728.453 37.8914C726.353 36.6914 724.703 35.0247 723.503 32.8914C722.303 30.7247 721.703 28.2247 721.703 25.3914C721.703 22.5914 722.319 20.1081 723.553 17.9414C724.786 15.7747 726.469 14.1081 728.603 12.9414C730.736 11.7747 733.119 11.1914 735.753 11.1914C738.386 11.1914 740.769 11.7747 742.903 12.9414C745.036 14.1081 746.719 15.7747 747.953 17.9414C749.186 20.1081 749.803 22.5914 749.803 25.3914C749.803 28.1914 749.169 30.6747 747.903 32.8414C746.636 35.0081 744.903 36.6914 742.703 37.8914C740.536 39.0581 738.136 39.6414 735.503 39.6414ZM735.503 34.6914C736.969 34.6914 738.336 34.3414 739.603 33.6414C740.903 32.9414 741.953 31.8914 742.753 30.4914C743.553 29.0914 743.953 27.3914 743.953 25.3914C743.953 23.3914 743.569 21.7081 742.803 20.3414C742.036 18.9414 741.019 17.8914 739.753 17.1914C738.486 16.4914 737.119 16.1414 735.653 16.1414C734.186 16.1414 732.819 16.4914 731.553 17.1914C730.319 17.8914 729.336 18.9414 728.603 20.3414C727.869 21.7081 727.503 23.3914 727.503 25.3914C727.503 28.3581 728.253 30.6581 729.753 32.2914C731.286 33.8914 733.203 34.6914 735.503 34.6914ZM789.376 32.0914H774.826L772.326 39.1914H766.376L778.826 4.3914H785.426L797.876 39.1914H791.876L789.376 32.0914ZM787.776 27.4414L782.126 11.2914L776.426 27.4414H787.776ZM814.739 39.5414C812.406 39.5414 810.306 39.1414 808.439 38.3414C806.572 37.5081 805.106 36.3414 804.039 34.8414C802.972 33.3414 802.439 31.5914 802.439 29.5914H808.539C808.672 31.0914 809.256 32.3247 810.289 33.2914C811.356 34.2581 812.839 34.7414 814.739 34.7414C816.706 34.7414 818.239 34.2747 819.339 33.3414C820.439 32.3747 820.989 31.1414 820.989 29.6414C820.989 28.4747 820.639 27.5247 819.939 26.7914C819.272 26.0581 818.422 25.4914 817.389 25.0914C816.389 24.6914 814.989 24.2581 813.189 23.7914C810.922 23.1914 809.072 22.5914 807.639 21.9914C806.239 21.3581 805.039 20.3914 804.039 19.0914C803.039 17.7914 802.539 16.0581 802.539 13.8914C802.539 11.8914 803.039 10.1414 804.039 8.64141C805.039 7.14141 806.439 5.99141 808.239 5.19141C810.039 4.3914 812.122 3.9914 814.489 3.9914C817.856 3.9914 820.606 4.8414 822.739 6.5414C824.906 8.20807 826.106 10.5081 826.339 13.4414H820.039C819.939 12.1747 819.339 11.0914 818.239 10.1914C817.139 9.2914 815.689 8.8414 813.889 8.8414C812.256 8.8414 810.922 9.25807 809.889 10.0914C808.856 10.9247 808.339 12.1247 808.339 13.6914C808.339 14.7581 808.656 15.6414 809.289 16.3414C809.956 17.0081 810.789 17.5414 811.789 17.9414C812.789 18.3414 814.156 18.7747 815.889 19.2414C818.189 19.8747 820.056 20.5081 821.489 21.1414C822.956 21.7747 824.189 22.7581 825.189 24.0914C826.222 25.3914 826.739 27.1414 826.739 29.3414C826.739 31.1081 826.256 32.7747 825.289 34.3414C824.356 35.9081 822.972 37.1747 821.139 38.1414C819.339 39.0747 817.206 39.5414 814.739 39.5414ZM854.415 32.0914H839.865L837.365 39.1914H831.415L843.865 4.3914H850.465L862.915 39.1914H856.915L854.415 32.0914ZM852.815 27.4414L847.165 11.2914L841.465 27.4414H852.815ZM892.628 14.7914C892.628 16.5581 892.211 18.2247 891.378 19.7914C890.545 21.3581 889.211 22.6414 887.378 23.6414C885.545 24.6081 883.195 25.0914 880.328 25.0914H874.028V39.1914H868.328V4.4414H880.328C882.995 4.4414 885.245 4.90807 887.078 5.8414C888.945 6.7414 890.328 7.97474 891.228 9.5414C892.161 11.1081 892.628 12.8581 892.628 14.7914ZM880.328 20.4414C882.495 20.4414 884.111 19.9581 885.178 18.9914C886.245 17.9914 886.778 16.5914 886.778 14.7914C886.778 10.9914 884.628 9.0914 880.328 9.0914H874.028V20.4414H880.328ZM900.364 39.5414C899.331 39.5414 898.464 39.1914 897.764 38.4914C897.064 37.7914 896.714 36.9247 896.714 35.8914C896.714 34.8581 897.064 33.9914 897.764 33.2914C898.464 32.5914 899.331 32.2414 900.364 32.2414C901.364 32.2414 902.214 32.5914 902.914 33.2914C903.614 33.9914 903.964 34.8581 903.964 35.8914C903.964 36.9247 903.614 37.7914 902.914 38.4914C902.214 39.1914 901.364 39.5414 900.364 39.5414Z" fill="url(#paint0_linear)"/>
<defs>
<linearGradient id="paint0_linear" x1="-3.00001" y1="21.1914" x2="907" y2="21.1913" gradientUnits="userSpaceOnUse">
<stop stop-color="#FF5D5D"/>
<stop offset="1" stop-color="#E964FF"/>
</linearGradient>
</defs>
</svg>
