<svg width="18" height="18" viewBox="0 0 18 18" fill="none" xmlns="http://www.w3.org/2000/svg">
<path d="M10.75 6.16262C10.75 5.20918 9.967 4.43715 9 4.43715C8.77017 4.43709 8.54258 4.48168 8.33023 4.56837C8.11788 4.65506 7.92493 4.78215 7.76242 4.94239C7.5999 5.10263 7.471 5.29287 7.38308 5.50224C7.29515 5.71161 7.24993 5.93601 7.25 6.16262C7.25 7.11607 8.033 7.88809 9 7.88809C9.967 7.88809 10.75 7.11607 10.75 6.16262ZM11.75 6.16262C11.75 7.66082 10.5195 8.87407 9 8.87407C8.63885 8.87414 8.28122 8.80405 7.94754 8.66781C7.61387 8.53157 7.31068 8.33185 7.05531 8.08005C6.79994 7.82826 6.59737 7.52932 6.4592 7.20033C6.32102 6.87133 6.24993 6.51871 6.25 6.16262C6.25 4.66442 7.4805 3.45117 9 3.45117C10.5195 3.45117 11.75 4.66442 11.75 6.16262ZM5.5 12.149C5.5 12.6139 5.46 12.5715 5.728 12.5715H12.522C12.79 12.5715 12.75 12.6139 12.75 12.149C12.75 11.021 11.098 10.353 9.125 10.353C7.152 10.353 5.5 11.021 5.5 12.149ZM4.5 12.149C4.5 10.2362 6.6495 9.36706 9.125 9.36706C11.6005 9.36706 13.75 10.2362 13.75 12.149C13.75 13.1429 13.3595 13.5575 12.522 13.5575H5.728C4.89 13.5575 4.5 13.1434 4.5 12.149Z" fill="#EC52A0"/>
</svg>
