<svg width="18" height="19" viewBox="0 0 18 19" fill="none" xmlns="http://www.w3.org/2000/svg">
<path d="M10.75 7.09817C10.75 6.14472 9.967 5.3727 9 5.3727C8.77017 5.37264 8.54258 5.41722 8.33023 5.50391C8.11788 5.5906 7.92493 5.7177 7.76242 5.87793C7.5999 6.03817 7.471 6.22841 7.38308 6.43778C7.29515 6.64716 7.24993 6.87156 7.25 7.09817C7.25 8.05161 8.033 8.82364 9 8.82364C9.967 8.82364 10.75 8.05161 10.75 7.09817ZM11.75 7.09817C11.75 8.59637 10.5195 9.80962 9 9.80962C8.63885 9.80969 8.28122 9.7396 7.94754 9.60336C7.61387 9.46712 7.31068 9.26739 7.05531 9.0156C6.79994 8.76381 6.59737 8.46487 6.4592 8.13587C6.32102 7.80688 6.24993 7.45426 6.25 7.09817C6.25 5.59997 7.4805 4.38672 9 4.38672C10.5195 4.38672 11.75 5.59997 11.75 7.09817ZM5.5 13.0846C5.5 13.5495 5.46 13.5071 5.728 13.5071H12.522C12.79 13.5071 12.75 13.5495 12.75 13.0846C12.75 11.9566 11.098 11.2886 9.125 11.2886C7.152 11.2886 5.5 11.9566 5.5 13.0846ZM4.5 13.0846C4.5 11.1718 6.6495 10.3026 9.125 10.3026C11.6005 10.3026 13.75 11.1718 13.75 13.0846C13.75 14.0784 13.3595 14.493 12.522 14.493H5.728C4.89 14.493 4.5 14.0789 4.5 13.0846Z" fill="#EC52A0"/>
</svg>
