<svg width="18" height="19" viewBox="0 0 18 19" fill="none" xmlns="http://www.w3.org/2000/svg">
<path d="M10.75 7.07471C10.75 6.12128 9.967 5.34926 9 5.34926C8.77017 5.34919 8.54258 5.39378 8.33023 5.48047C8.11788 5.56716 7.92493 5.69425 7.76242 5.85449C7.5999 6.01472 7.471 6.20496 7.38308 6.41433C7.29515 6.6237 7.24993 6.84811 7.25 7.07471C7.25 8.02815 8.033 8.80017 9 8.80017C9.967 8.80017 10.75 8.02815 10.75 7.07471ZM11.75 7.07471C11.75 8.5729 10.5195 9.78615 9 9.78615C8.63885 9.78621 8.28122 9.71612 7.94754 9.57988C7.61387 9.44364 7.31068 9.24392 7.05531 8.99213C6.79994 8.74034 6.59737 8.44141 6.4592 8.11241C6.32102 7.78342 6.24993 7.4308 6.25 7.07471C6.25 5.57652 7.4805 4.36328 9 4.36328C10.5195 4.36328 11.75 5.57652 11.75 7.07471ZM5.5 13.0611C5.5 13.526 5.46 13.4836 5.728 13.4836H12.522C12.79 13.4836 12.75 13.526 12.75 13.0611C12.75 11.9331 11.098 11.2651 9.125 11.2651C7.152 11.2651 5.5 11.9331 5.5 13.0611ZM4.5 13.0611C4.5 11.1483 6.6495 10.2791 9.125 10.2791C11.6005 10.2791 13.75 11.1483 13.75 13.0611C13.75 14.0549 13.3595 14.4695 12.522 14.4695H5.728C4.89 14.4695 4.5 14.0554 4.5 13.0611Z" fill="#EC52A0"/>
</svg>
