<svg width="26" height="13" viewBox="0 0 26 13" fill="none" xmlns="http://www.w3.org/2000/svg">
<path d="M1 12.3752C1.074 7.06265 5.71083 2.70686 11.6628 2.13281H14.3372C20.2895 2.70704 24.926 7.06302 25 12.3752H1Z" fill="white"/>
<path d="M24.075 1.62109L21.2678 6.48328M1.92554 1.62109L4.7326 6.48328L1.92554 1.62109Z" stroke="white" stroke-width="2" stroke-linecap="round" stroke-linejoin="round"/>
<path d="M9.42531 7.61404C9.42756 8.35663 8.81296 8.96039 8.05243 8.96244C7.29227 8.96431 6.67412 8.36411 6.67188 7.62151V7.61404C6.66982 6.87125 7.28442 6.26769 8.04477 6.26563C8.80493 6.26357 9.42307 6.86359 9.42531 7.60656V7.61404ZM19.7021 7.61404C19.7043 8.35663 19.0897 8.96039 18.3292 8.96244C17.569 8.96431 16.9509 8.36411 16.9486 7.62151V7.61404C16.9466 6.87125 17.5612 6.26769 18.3215 6.26563C19.0817 6.26357 19.6998 6.86359 19.7021 7.60656V7.61404Z" fill="black"/>
</svg>
