<svg width="13" height="12" viewBox="0 0 13 12" fill="none" xmlns="http://www.w3.org/2000/svg">
<path d="M10.2742 2.76436C10.2742 2.39117 9.96743 2.08984 9.59036 2.08984C9.21327 2.08984 8.90625 2.39117 8.90625 2.76436C8.90625 3.13617 9.21327 3.4375 9.59036 3.4375C9.96743 3.4375 10.2742 3.13617 10.2742 2.76436Z" fill="black"/>
<path d="M11.1858 8.02911C11.1605 8.57654 11.0676 8.87397 10.9905 9.07152C10.887 9.33345 10.7634 9.52073 10.5631 9.71717C10.365 9.91361 10.175 10.0351 9.90937 10.1361C9.70901 10.2133 9.40622 10.3051 8.85102 10.3312C8.25078 10.3573 8.07293 10.3628 6.55081 10.3628C5.0301 10.3628 4.85083 10.3573 4.2506 10.3312C3.6954 10.3051 3.39401 10.2133 3.19364 10.1361C2.92659 10.0351 2.73806 9.91361 2.53882 9.71717C2.33817 9.52073 2.21465 9.33345 2.1125 9.07152C2.03538 8.87397 1.94112 8.57654 1.91719 8.02911C1.88793 7.43729 1.88257 7.25916 1.88257 5.76144C1.88257 4.26066 1.88793 4.08391 1.91719 3.49208C1.94112 2.94467 2.03538 2.64751 2.1125 2.44828C2.21465 2.18664 2.33817 2.00046 2.53882 1.80402C2.73806 1.60787 2.92659 1.48605 3.19364 1.38396C3.39401 1.30655 3.6954 1.21609 4.2506 1.19002C4.85083 1.16392 5.0301 1.15726 6.55081 1.15726C8.07293 1.15726 8.25078 1.16392 8.85102 1.19002C9.40622 1.21609 9.70901 1.30655 9.90937 1.38396C10.175 1.48605 10.365 1.60787 10.5631 1.80402C10.7634 2.00046 10.887 2.18664 10.9905 2.44828C11.0676 2.64751 11.1605 2.94467 11.1858 3.49208C11.2137 4.08391 11.2204 4.26066 11.2204 5.76144C11.2204 7.25916 11.2137 7.43729 11.1858 8.02911ZM12.211 3.44603C12.1831 2.84782 12.0874 2.43913 11.9453 2.08316C11.8007 1.71385 11.6068 1.40088 11.2894 1.0879C10.9734 0.776324 10.6559 0.585148 10.2814 0.440876C9.91895 0.302139 9.50583 0.206686 8.89884 0.180612C8.29185 0.151749 8.09798 0.146484 6.55081 0.146484C5.00505 0.146484 4.80976 0.151749 4.20277 0.180612C3.59717 0.206686 3.18435 0.302139 2.82022 0.440876C2.44708 0.585148 2.12965 0.776324 1.81364 1.0879C1.49622 1.40088 1.30232 1.71385 1.15627 2.08316C1.01556 2.43913 0.919894 2.84782 0.890621 3.44603C0.864176 4.04451 0.857422 4.23596 0.857422 5.76144C0.857422 7.28552 0.864176 7.47668 0.890621 8.07516C0.919894 8.67227 1.01556 9.08067 1.15627 9.43833C1.30232 9.80624 1.49622 10.1206 1.81364 10.4322C2.12965 10.7438 2.44708 10.9363 2.82022 11.0803C3.18435 11.2191 3.59717 11.3134 4.20277 11.3409C4.80976 11.3683 5.00505 11.375 6.55081 11.375C8.09798 11.375 8.29185 11.3683 8.89884 11.3409C9.50583 11.3134 9.91895 11.2191 10.2814 11.0803C10.6559 10.9363 10.9734 10.7438 11.2894 10.4322C11.6068 10.1206 11.8007 9.80624 11.9453 9.43833C12.0874 9.08067 12.1831 8.67227 12.211 8.07516C12.2389 7.47668 12.2456 7.28552 12.2456 5.76144C12.2456 4.23596 12.2389 4.04451 12.211 3.44603Z" fill="black"/>
<path d="M6.55087 7.63247C5.5032 7.63247 4.65308 6.79572 4.65308 5.76285C4.65308 4.72831 5.5032 3.89048 6.55087 3.89048C7.59883 3.89048 8.45007 4.72831 8.45007 5.76285C8.45007 6.79572 7.59883 7.63247 6.55087 7.63247ZM6.55087 2.87842C4.93589 2.87842 3.62793 4.17067 3.62793 5.76285C3.62793 7.35365 4.93589 8.64453 6.55087 8.64453C8.16585 8.64453 9.47522 7.35365 9.47522 5.76285C9.47522 4.17067 8.16585 2.87842 6.55087 2.87842Z" fill="black"/>
</svg>
