<svg width="13" height="12" viewBox="0 0 13 12" fill="none" xmlns="http://www.w3.org/2000/svg">
<path d="M10.274 2.76826C10.274 2.39508 9.9673 2.09375 9.59024 2.09375C9.21315 2.09375 8.90613 2.39508 8.90613 2.76826C8.90613 3.14008 9.21315 3.44141 9.59024 3.44141C9.9673 3.44141 10.274 3.14008 10.274 2.76826" fill="black"/>
<path d="M11.1856 8.03301C11.1603 8.58045 11.0674 8.87788 10.9903 9.07542C10.8867 9.33735 10.7632 9.52464 10.5628 9.72108C10.3647 9.91752 10.1748 10.039 9.90912 10.14C9.70877 10.2172 9.40597 10.309 8.85077 10.3351C8.25054 10.3612 8.07268 10.3667 6.55056 10.3667C5.02986 10.3667 4.85059 10.3612 4.25035 10.3351C3.69515 10.309 3.39377 10.2172 3.19339 10.14C2.92635 10.039 2.73781 9.91752 2.53858 9.72108C2.33793 9.52464 2.2144 9.33735 2.11225 9.07542C2.03513 8.87788 1.94088 8.58045 1.91694 8.03301C1.88769 7.44119 1.88233 7.26307 1.88233 5.76535C1.88233 4.26457 1.88769 4.08781 1.91694 3.49599C1.94088 2.94858 2.03513 2.65142 2.11225 2.45219C2.2144 2.19055 2.33793 2.00437 2.53858 1.80793C2.73781 1.61178 2.92635 1.48996 3.19339 1.38787C3.39377 1.31046 3.69515 1.22 4.25035 1.19392C4.85059 1.16783 5.02986 1.16117 6.55056 1.16117C8.07268 1.16117 8.25054 1.16783 8.85077 1.19392C9.40597 1.22 9.70877 1.31046 9.90912 1.38787C10.1748 1.48996 10.3647 1.61178 10.5628 1.80793C10.7632 2.00437 10.8867 2.19055 10.9903 2.45219C11.0674 2.65142 11.1603 2.94858 11.1856 3.49599C11.2134 4.08781 11.2202 4.26457 11.2202 5.76535C11.2202 7.26307 11.2134 7.44119 11.1856 8.03301V8.03301ZM12.2107 3.44994C12.1829 2.85173 12.0872 2.44303 11.9451 2.08706C11.8005 1.71776 11.6066 1.40479 11.2891 1.09181C10.9731 0.780231 10.6557 0.589054 10.2811 0.444782C9.91871 0.306046 9.50559 0.210592 8.8986 0.184518C8.29161 0.155655 8.09773 0.15039 6.55056 0.15039C5.00481 0.15039 4.80952 0.155655 4.20253 0.184518C3.59693 0.210592 3.18411 0.306046 2.81998 0.444782C2.44683 0.589054 2.12941 0.780231 1.8134 1.09181C1.49597 1.40479 1.30208 1.71776 1.15603 2.08706C1.01532 2.44303 0.91965 2.85173 0.890376 3.44994C0.863931 4.04842 0.857178 4.23987 0.857178 5.76535C0.857178 7.28943 0.863931 7.48059 0.890376 8.07907C0.91965 8.67617 1.01532 9.08458 1.15603 9.44223C1.30208 9.81014 1.49597 10.1245 1.8134 10.4361C2.12941 10.7477 2.44683 10.9402 2.81998 11.0842C3.18411 11.223 3.59693 11.3173 4.20253 11.3448C4.80952 11.3722 5.00481 11.3789 6.55056 11.3789C8.09773 11.3789 8.29161 11.3722 8.8986 11.3448C9.50559 11.3173 9.91871 11.223 10.2811 11.0842C10.6557 10.9402 10.9731 10.7477 11.2891 10.4361C11.6066 10.1245 11.8005 9.81014 11.9451 9.44223C12.0872 9.08458 12.1829 8.67617 12.2107 8.07907C12.2386 7.48059 12.2454 7.28943 12.2454 5.76535C12.2454 4.23987 12.2386 4.04842 12.2107 3.44994V3.44994Z" fill="black"/>
<path d="M6.55038 7.63442C5.50271 7.63442 4.65259 6.79767 4.65259 5.7648C4.65259 4.73026 5.50271 3.89244 6.55038 3.89244C7.59834 3.89244 8.44958 4.73026 8.44958 5.7648C8.44958 6.79767 7.59834 7.63442 6.55038 7.63442V7.63442ZM6.55038 2.88037C4.9354 2.88037 3.62744 4.17263 3.62744 5.7648C3.62744 7.3556 4.9354 8.64648 6.55038 8.64648C8.16536 8.64648 9.47473 7.3556 9.47473 5.7648C9.47473 4.17263 8.16536 2.88037 6.55038 2.88037Z" fill="black"/>
</svg>
