<svg width="13" height="12" viewBox="0 0 13 12" fill="none" xmlns="http://www.w3.org/2000/svg">
<path d="M10.2742 2.84443C10.2742 2.47233 9.96743 2.17188 9.59036 2.17188C9.21327 2.17188 8.90625 2.47233 8.90625 2.84443C8.90625 3.21517 9.21327 3.51562 9.59036 3.51562C9.96743 3.51562 10.2742 3.21517 10.2742 2.84443Z" fill="black"/>
<path d="M11.1858 8.08995C11.1605 8.6351 11.0676 8.93129 10.9905 9.12801C10.887 9.38884 10.7634 9.57535 10.5631 9.77097C10.365 9.96659 10.175 10.0876 9.90937 10.1882C9.70901 10.265 9.40622 10.3564 8.85102 10.3824C8.25078 10.4084 8.07293 10.4139 6.55081 10.4139C5.0301 10.4139 4.85083 10.4084 4.2506 10.3824C3.6954 10.3564 3.39401 10.265 3.19364 10.1882C2.92659 10.0876 2.73806 9.96659 2.53882 9.77097C2.33817 9.57535 2.21465 9.38884 2.1125 9.12801C2.03538 8.93129 1.94112 8.6351 1.91719 8.08995C1.88793 7.5006 1.88257 7.32322 1.88257 5.83175C1.88257 4.33724 1.88793 4.16122 1.91719 3.57187C1.94112 3.02674 2.03538 2.73082 2.1125 2.53242C2.21465 2.27188 2.33817 2.08647 2.53882 1.89085C2.73806 1.69552 2.92659 1.57421 3.19364 1.47254C3.39401 1.39546 3.6954 1.30538 4.2506 1.27941C4.85083 1.25342 5.0301 1.24679 6.55081 1.24679C8.07293 1.24679 8.25078 1.25342 8.85102 1.27941C9.40622 1.30538 9.70901 1.39546 9.90937 1.47254C10.175 1.57421 10.365 1.69552 10.5631 1.89085C10.7634 2.08647 10.887 2.27188 10.9905 2.53242C11.0676 2.73082 11.1605 3.02674 11.1858 3.57187C11.2137 4.16122 11.2204 4.33724 11.2204 5.83175C11.2204 7.32322 11.2137 7.5006 11.1858 8.08995ZM12.211 3.52601C12.1831 2.9303 12.0874 2.5233 11.9453 2.16882C11.8007 1.80106 11.6068 1.48939 11.2894 1.17772C10.9734 0.867445 10.6559 0.677067 10.2814 0.533398C9.91895 0.39524 9.50583 0.300185 8.89884 0.27422C8.29185 0.245478 8.09798 0.240234 6.55081 0.240234C5.00505 0.240234 4.80976 0.245478 4.20277 0.27422C3.59717 0.300185 3.18435 0.39524 2.82022 0.533398C2.44708 0.677067 2.12965 0.867445 1.81364 1.17772C1.49622 1.48939 1.30232 1.80106 1.15627 2.16882C1.01556 2.5233 0.919894 2.9303 0.890621 3.52601C0.864176 4.12199 0.857422 4.31264 0.857422 5.83175C0.857422 7.34947 0.864176 7.53983 0.890621 8.13581C0.919894 8.73042 1.01556 9.13713 1.15627 9.49329C1.30232 9.85966 1.49622 10.1727 1.81364 10.483C2.12965 10.7933 2.44708 10.985 2.82022 11.1284C3.18435 11.2666 3.59717 11.3605 4.20277 11.3879C4.80976 11.4152 5.00505 11.4219 6.55081 11.4219C8.09798 11.4219 8.29185 11.4152 8.89884 11.3879C9.50583 11.3605 9.91895 11.2666 10.2814 11.1284C10.6559 10.985 10.9734 10.7933 11.2894 10.483C11.6068 10.1727 11.8007 9.85966 11.9453 9.49329C12.0874 9.13713 12.1831 8.73042 12.211 8.13581C12.2389 7.53983 12.2456 7.34947 12.2456 5.83175C12.2456 4.31264 12.2389 4.12199 12.211 3.52601Z" fill="black"/>
<path d="M6.54989 7.69135C5.50222 7.69135 4.6521 6.85808 4.6521 5.82949C4.6521 4.79925 5.50222 3.9649 6.54989 3.9649C7.59785 3.9649 8.4491 4.79925 8.4491 5.82949C8.4491 6.85808 7.59785 7.69135 6.54989 7.69135ZM6.54989 2.95703C4.93491 2.95703 3.62695 4.24393 3.62695 5.82949C3.62695 7.41369 4.93491 8.69922 6.54989 8.69922C8.16487 8.69922 9.47424 7.41369 9.47424 5.82949C9.47424 4.24393 8.16487 2.95703 6.54989 2.95703Z" fill="black"/>
</svg>
