<svg width="30" height="33" viewBox="0 0 30 33" fill="none" xmlns="http://www.w3.org/2000/svg">
<path d="M15 2.97266C16.6744 2.97266 18.3323 3.31851 19.8792 3.99048C21.4261 4.66245 22.8317 5.64736 24.0156 6.88899C25.1996 8.13063 26.1387 9.60466 26.7795 11.2269C27.4202 12.8492 27.75 14.5879 27.75 16.3439C27.75 18.0998 27.4202 19.8385 26.7795 21.4608C26.1387 23.0831 25.1996 24.5571 24.0156 25.7988C22.8317 27.0404 21.4261 28.0253 19.8792 28.6973C18.3323 29.3692 16.6744 29.7151 15 29.7151C11.6185 29.7151 8.37548 28.3063 5.98439 25.7988C3.5933 23.2912 2.25 19.8901 2.25 16.3439C2.25 12.7976 3.5933 9.39658 5.98439 6.88899C8.37548 4.38141 11.6185 2.97266 15 2.97266ZM10.512 21.8497L5.907 21.8512C6.63656 23.1748 7.62056 24.3247 8.79652 25.2281C9.97249 26.1316 11.3147 26.7687 12.738 27.099C11.786 25.4563 11.0379 23.6928 10.512 21.8512V21.8497ZM19.488 21.8497C18.9625 23.6911 18.215 25.4546 17.2635 27.0975C18.6868 26.7676 20.029 26.1308 21.205 25.2276C22.381 24.3245 23.365 23.1746 24.0945 21.8512H19.4895L19.488 21.8497ZM17.13 21.8497H12.87C13.365 23.3992 14.076 24.9329 15 26.4494C15.924 24.9313 16.635 23.3976 17.13 21.8497ZM17.7195 13.1977H12.2805C11.9055 15.2772 11.9055 17.4121 12.2805 19.4916H17.7195C18.0945 17.4121 18.0945 15.2772 17.7195 13.1977ZM9.9945 13.1977H4.935C4.64567 14.2188 4.49915 15.2786 4.5 16.3439C4.5 17.4372 4.6515 18.4943 4.935 19.49H9.996C9.66754 17.4067 9.66754 15.281 9.996 13.1977H9.9945ZM25.065 13.1977H20.004C20.3324 15.281 20.3324 17.4067 20.004 19.49H25.065C25.3485 18.4943 25.5 17.4372 25.5 16.3439C25.5 15.2506 25.3485 14.195 25.065 13.1977ZM12.7365 5.59027L12.5445 5.63589C11.1596 5.9863 9.85707 6.62809 8.71584 7.52234C7.57461 8.41658 6.6185 9.54464 5.9055 10.8381H10.5105C11.01 9.06049 11.7525 7.31122 12.7365 5.59027ZM15 6.23838C14.1131 7.67493 13.3977 9.22025 12.87 10.8397H17.13C16.6023 9.22025 15.8869 7.67493 15 6.23838ZM17.262 5.5887L17.34 5.72398C18.2564 7.32837 18.9785 9.04632 19.4895 10.8381H24.0945C23.3649 9.5141 22.3808 8.36372 21.2045 7.46002C20.0283 6.55632 18.6857 5.91905 17.262 5.5887Z" fill="#EC52A0"/>
</svg>
