<svg width="1425" height="356" viewBox="0 0 1425 356" fill="none" xmlns="http://www.w3.org/2000/svg">
<path d="M1158.68 236.571C1249.03 306.904 1304.28 295.271 1403.48 266.577L1402.79 262.911C1305.24 291.165 1251.33 302.995 1162.21 233.841C1150.11 221.742 1137.75 209.076 1125.89 196.883C1051.31 120.207 961.413 77.775 859.639 56.5897C737.217 31.0084 615.012 95.7112 496.709 158.347L495.981 158.733L493.881 159.845C441.245 187.706 386.844 216.501 332.902 236.991C262.442 263.846 127.484 298.636 14.336 230.503L11.6341 233.947C126.273 302.945 262.756 267.817 333.934 240.68C388.799 219.734 443.994 190.483 497.365 162.2L497.506 162.125L497.975 161.877C615.626 99.5888 737.3 35.1709 858.255 60.4491C958.684 81.4361 1048.2 123.294 1122.36 199.614C1134.22 211.807 1146.59 224.472 1158.68 236.571Z" fill="url(#paint0_linear)"/>
<path d="M81.3819 82.8575C57.913 94.7718 33.6429 106.984 4.90854 113.883L6.98968 117.574C36.2889 110.498 60.999 98.0202 84.7325 86.036L84.9101 85.9463C106.59 75.0586 126.986 64.6694 150.701 58.1272C222.173 38.2939 308.075 72.8534 341.764 88.6874C366.835 100.583 391.463 114.322 415.188 127.589C459.929 152.707 506.172 178.648 558.716 192.68C682.012 225.776 812.473 190.267 938.657 155.923L939.158 155.787L954.595 151.557C1082.2 116.999 1303.66 47.612 1418.91 102.109L1422.42 98.8492C1304.91 43.2814 1081.71 112.822 952.669 147.872L937.233 152.102C811.842 186.306 682.163 221.551 560.845 189.04C509.227 175.152 463.28 149.441 418.835 124.554C394.954 111.281 370.334 97.4323 344.952 85.5251C310.508 69.3342 222.472 34.037 148.457 54.5399C124.104 61.2768 102.416 72.2737 81.3819 82.8575Z" fill="url(#paint1_linear)"/>
<defs>
<linearGradient id="paint0_linear" x1="1415.75" y1="204.787" x2="-40.3337" y2="126.235" gradientUnits="userSpaceOnUse">
<stop stop-color="#2B72FF"/>
<stop offset="1" stop-color="#F75C87"/>
</linearGradient>
<linearGradient id="paint1_linear" x1="-7.31039e-08" y1="115.499" x2="1478.13" y2="42.1515" gradientUnits="userSpaceOnUse">
<stop stop-color="#2B72FF"/>
<stop offset="1" stop-color="#F75C87"/>
</linearGradient>
</defs>
</svg>
