<svg width="19" height="24" viewBox="0 0 19 24" fill="none" xmlns="http://www.w3.org/2000/svg">
<path d="M17.1904 21.5L13.6904 23.5H3.69043L2.19043 21L0.69043 18L1.19043 15.5L2.19043 14L3.69043 13V11.5L4.19043 1.5L5.19043 0.5L7.19043 2.5V8.5H14.1904L16.1904 7.5L17.6904 9V17L17.1904 21.5Z" fill="white"/>
<path d="M16 7C15.672 6.99927 15.3473 7.06439 15.045 7.1915C14.7426 7.31862 14.4689 7.50514 14.24 7.74C14.0085 7.50598 13.7328 7.3202 13.429 7.19341C13.1252 7.06663 12.7992 7.00134 12.47 7.00134C12.1408 7.00134 11.8148 7.06663 11.511 7.19341C11.2072 7.3202 10.9316 7.50598 10.7 7.74C10.4634 7.49871 10.1798 7.30854 9.86674 7.18126C9.55369 7.05397 9.21785 6.99228 8.88 7C8.51281 6.99644 8.14985 7.07862 7.82 7.24V2.47C7.82 1.81492 7.55977 1.18666 7.09656 0.723446C6.63334 0.260231 6.00509 0 5.35 0C4.69492 0 4.06666 0.260231 3.60345 0.723446C3.14023 1.18666 2.88 1.81492 2.88 2.47V12.55C2.28804 12.8188 1.75576 13.2032 1.31442 13.6806C0.873089 14.158 0.531597 14.7188 0.310002 15.33C0.0700633 15.9796 -0.026464 16.6735 0.0270462 17.3639C0.0805564 18.0544 0.282837 18.7251 0.620002 19.33L3 23.64C3.06289 23.7489 3.15323 23.8395 3.26201 23.9027C3.37079 23.9658 3.49422 23.9994 3.62 24H13.62C14.9161 23.9974 16.1584 23.4813 17.0748 22.5648C17.9913 21.6484 18.5074 20.4061 18.51 19.11V9.47C18.51 9.14224 18.4449 8.81775 18.3182 8.51544C18.1916 8.21313 18.0061 7.93904 17.7725 7.70915C17.5389 7.47926 17.2618 7.29816 16.9575 7.17641C16.6532 7.05466 16.3277 6.99469 16 7ZM13.53 22.59H4.28V2.47C4.30568 2.20535 4.42897 1.95974 4.62585 1.78103C4.82274 1.60232 5.07911 1.50332 5.345 1.50332C5.6109 1.50332 5.86727 1.60232 6.06415 1.78103C6.26103 1.95974 6.38433 2.20535 6.41 2.47V9.47C6.43058 9.64251 6.51371 9.80149 6.64363 9.91684C6.77356 10.0322 6.94126 10.0959 7.115 10.0959C7.28874 10.0959 7.45645 10.0322 7.58637 9.91684C7.7163 9.80149 7.79942 9.64251 7.82 9.47C7.80559 9.32147 7.82241 9.17157 7.86938 9.02993C7.91634 8.88828 7.99241 8.75803 8.09271 8.64753C8.19301 8.53704 8.3153 8.44874 8.45175 8.38832C8.5882 8.32789 8.73577 8.29668 8.885 8.29668C9.03423 8.29668 9.18181 8.32789 9.31825 8.38832C9.4547 8.44874 9.577 8.53704 9.67729 8.64753C9.77759 8.75803 9.85366 8.88828 9.90063 9.02993C9.94759 9.17157 9.96441 9.32147 9.95 9.47C9.95 9.65565 10.0238 9.8337 10.155 9.96497C10.2863 10.0962 10.4643 10.17 10.65 10.17C10.8357 10.17 11.0137 10.0962 11.145 9.96497C11.2763 9.8337 11.35 9.65565 11.35 9.47C11.3356 9.32147 11.3524 9.17157 11.3994 9.02993C11.4463 8.88828 11.5224 8.75803 11.6227 8.64753C11.723 8.53704 11.8453 8.44874 11.9818 8.38832C12.1182 8.32789 12.2658 8.29668 12.415 8.29668C12.5642 8.29668 12.7118 8.32789 12.8483 8.38832C12.9847 8.44874 13.107 8.53704 13.2073 8.64753C13.3076 8.75803 13.3837 8.88828 13.4306 9.02993C13.4776 9.17157 13.4944 9.32147 13.48 9.47C13.5006 9.64251 13.5837 9.80149 13.7136 9.91684C13.8436 10.0322 14.0113 10.0959 14.185 10.0959C14.3587 10.0959 14.5264 10.0322 14.6564 9.91684C14.7863 9.80149 14.8694 9.64251 14.89 9.47C14.8756 9.32147 14.8924 9.17157 14.9394 9.02993C14.9863 8.88828 15.0624 8.75803 15.1627 8.64753C15.263 8.53704 15.3853 8.44874 15.5218 8.38832C15.6582 8.32789 15.8058 8.29668 15.955 8.29668C16.1042 8.29668 16.2518 8.32789 16.3883 8.38832C16.5247 8.44874 16.647 8.53704 16.7473 8.64753C16.8476 8.75803 16.9237 8.88828 16.9706 9.02993C17.0176 9.17157 17.0344 9.32147 17.02 9.47V19.11C17.0174 20.0339 16.6485 20.919 15.9943 21.5713C15.3401 22.2237 14.4539 22.59 13.53 22.59ZM1.63 15.81C1.87086 15.1493 2.30678 14.5774 2.88 14.17V20.56L1.88 18.7C1.63331 18.264 1.4857 17.779 1.44768 17.2795C1.40965 16.78 1.48215 16.2783 1.66 15.81H1.63Z" fill="black"/>
</svg>
