<svg width="18" height="18" viewBox="0 0 18 18" fill="none" xmlns="http://www.w3.org/2000/svg">
<path fill-rule="evenodd" clip-rule="evenodd" d="M12.7655 12.0647L16.854 16.1533L16.8541 16.1532C17.0488 16.347 17.0488 16.6614 16.8533 16.8544C16.7568 16.9509 16.6304 17 16.5031 17C16.3767 17 16.2494 16.9509 16.1529 16.8544L12.0644 12.7658C10.8906 13.7782 9.36415 14.393 7.69631 14.393C4.00455 14.393 1 11.3883 1 7.69648C1 4.00463 4.00455 1 7.69631 1C11.3881 1 14.3926 4.00378 14.3926 7.69648C14.3926 9.36437 13.7779 10.8909 12.7655 12.0647ZM1.99138 7.69648C1.99138 10.8425 4.55086 13.4014 7.69618 13.4014C10.8413 13.4014 13.401 10.8419 13.401 7.69648C13.401 4.55044 10.8415 1.99154 7.69618 1.99154C4.55022 1.99154 1.99138 4.55108 1.99138 7.69648Z" fill="#999999"/>
<path d="M16.854 16.1533L16.6065 16.4008C16.6758 16.47 16.771 16.5071 16.8688 16.503C16.9667 16.4988 17.0584 16.4538 17.1216 16.3789L16.854 16.1533ZM12.7655 12.0647L12.5005 11.8361C12.3808 11.9749 12.3884 12.1826 12.518 12.3122L12.7655 12.0647ZM16.8541 16.1532L17.1011 15.9051C17.0317 15.8361 16.9367 15.7992 16.8389 15.8035C16.7411 15.8077 16.6496 15.8527 16.5866 15.9275L16.8541 16.1532ZM16.8533 16.8544L16.6074 16.6053L16.6058 16.6069L16.8533 16.8544ZM16.1529 16.8544L16.4004 16.6069L16.4004 16.6069L16.1529 16.8544ZM12.0644 12.7658L12.3119 12.5183C12.1823 12.3887 11.9746 12.3811 11.8358 12.5008L12.0644 12.7658ZM17.1015 15.9058L13.013 11.8172L12.518 12.3122L16.6065 16.4008L17.1015 15.9058ZM16.5866 15.9275L16.5864 15.9276L17.1216 16.3789L17.1217 16.3788L16.5866 15.9275ZM17.0992 17.1035C17.4337 16.7733 17.4329 16.2356 17.1011 15.9051L16.6071 16.4012C16.6646 16.4584 16.6639 16.5496 16.6074 16.6054L17.0992 17.1035ZM16.5031 17.35C16.7206 17.35 16.9369 17.2658 17.1008 17.1019L16.6058 16.6069C16.5767 16.636 16.5401 16.65 16.5031 16.65V17.35ZM15.9054 17.1019C16.0695 17.266 16.2867 17.35 16.5031 17.35V16.65C16.4666 16.65 16.4292 16.6358 16.4004 16.6069L15.9054 17.1019ZM11.8169 13.0133L15.9054 17.1019L16.4004 16.6069L12.3119 12.5183L11.8169 13.0133ZM7.69631 14.743C9.45181 14.743 11.0585 14.0956 12.293 13.0309L11.8358 12.5008C10.7227 13.4609 9.27649 14.043 7.69631 14.043V14.743ZM0.65 7.69648C0.65 11.5816 3.81124 14.743 7.69631 14.743V14.043C4.19786 14.043 1.35 11.195 1.35 7.69648H0.65ZM7.69631 0.65C3.81124 0.65 0.65 3.81134 0.65 7.69648H1.35C1.35 4.19792 4.19786 1.35 7.69631 1.35V0.65ZM14.7426 7.69648C14.7426 3.81046 11.5813 0.65 7.69631 0.65V1.35C11.1948 1.35 14.0426 4.1971 14.0426 7.69648H14.7426ZM13.0306 12.2933C14.0952 11.0589 14.7426 9.45202 14.7426 7.69648H14.0426C14.0426 9.27673 13.4605 10.723 12.5005 11.8361L13.0306 12.2933ZM7.69618 13.0514C4.74415 13.0514 2.34138 10.6492 2.34138 7.69648H1.64138C1.64138 11.0358 4.35758 13.7514 7.69618 13.7514V13.0514ZM13.051 7.69648C13.051 10.6486 10.648 13.0514 7.69618 13.0514V13.7514C11.0346 13.7514 13.751 11.0352 13.751 7.69648H13.051ZM7.69618 2.34153C10.6482 2.34153 13.051 4.74376 13.051 7.69648H13.751C13.751 4.35713 11.0348 1.64154 7.69618 1.64154V2.34153ZM2.34138 7.69648C2.34138 4.74435 4.74356 2.34153 7.69618 2.34153V1.64154C4.35689 1.64154 1.64138 4.35782 1.64138 7.69648H2.34138Z" fill="#999999"/>
</svg>
