<svg width="20" height="14" viewBox="0 0 20 14" fill="none" xmlns="http://www.w3.org/2000/svg">
<path d="M7.40285 12.1875C12.6861 12.1875 15.5754 7.95591 15.5754 4.28643C15.5754 4.16625 15.5728 4.04662 15.5672 3.92748C16.1294 3.53424 16.6145 3.04731 17 2.48952C16.4853 2.71071 15.9315 2.8596 15.3506 2.92673C15.9435 2.5829 16.3988 2.0391 16.6136 1.39079C16.0497 1.71419 15.4329 1.94215 14.7897 2.06486C14.2655 1.5251 13.5194 1.1875 12.693 1.1875C11.1068 1.1875 9.82054 2.43111 9.82054 3.96405C9.82054 4.18197 9.84577 4.39394 9.89505 4.59723C7.5078 4.4811 5.39096 3.3761 3.97426 1.69587C3.7191 2.11963 3.58488 2.60127 3.58531 3.0916C3.58531 4.05502 4.09241 4.90554 4.86353 5.4031C4.4074 5.38965 3.96129 5.27054 3.56267 5.05578C3.56225 5.06745 3.56225 5.07881 3.56225 5.09125C3.56225 6.43611 4.55234 7.55895 5.86663 7.81339C5.61978 7.87839 5.36507 7.91126 5.10923 7.91113C4.92805 7.91101 4.74729 7.89424 4.56939 7.86103C4.93507 8.96439 5.99544 9.76731 7.25261 9.78975C6.26952 10.5347 5.0311 10.9784 3.68515 10.9784C3.45358 10.9784 3.22484 10.9657 3 10.94C4.27121 11.7277 5.78065 12.1874 7.40299 12.1874" fill="black"/>
</svg>
