<svg width="21" height="15" viewBox="0 0 21 15" fill="none" xmlns="http://www.w3.org/2000/svg">
<path d="M16.4659 4.46454C16.319 3.89422 15.8863 3.44508 15.3368 3.29265C14.3409 3.01562 10.3473 3.01562 10.3473 3.01562C10.3473 3.01562 6.35369 3.01562 5.35777 3.29265C4.80827 3.44508 4.37551 3.89422 4.22868 4.46454C3.96179 5.49832 3.96179 7.65511 3.96179 7.65511C3.96179 7.65511 3.96179 9.81191 4.22868 10.8457C4.37551 11.416 4.80827 11.8651 5.35777 12.0176C6.35369 12.2945 10.3473 12.2945 10.3473 12.2945C10.3473 12.2945 14.3409 12.2945 15.3368 12.0176C15.8863 11.8651 16.319 11.4159 16.4659 10.8457C16.7328 9.81185 16.7328 7.65511 16.7328 7.65511C16.7328 7.65511 16.7328 5.49832 16.4659 4.46454Z" fill="black"/>
<path d="M9.04065 9.61171L12.3786 7.65359L9.04065 5.69531V9.61171Z" fill="white"/>
</svg>
