<svg width="21" height="15" viewBox="0 0 21 15" fill="none" xmlns="http://www.w3.org/2000/svg">
<path d="M16.4659 4.46259C16.319 3.89227 15.8863 3.44312 15.3368 3.29069C14.3409 3.01367 10.3472 3.01367 10.3472 3.01367C10.3472 3.01367 6.35366 3.01367 5.35774 3.29069C4.80824 3.44312 4.37548 3.89227 4.22865 4.46259C3.96176 5.49637 3.96176 7.65316 3.96176 7.65316C3.96176 7.65316 3.96176 9.80995 4.22865 10.8437C4.37548 11.4141 4.80824 11.8631 5.35774 12.0156C6.35366 12.2926 10.3472 12.2926 10.3472 12.2926C10.3472 12.2926 14.3409 12.2926 15.3368 12.0156C15.8863 11.8631 16.319 11.414 16.4659 10.8438C16.7328 9.8099 16.7328 7.65316 16.7328 7.65316C16.7328 7.65316 16.7328 5.49637 16.4659 4.46259" fill="black"/>
<path d="M9.04065 9.61171L12.3786 7.65359L9.04065 5.69531V9.61171Z" fill="white"/>
</svg>
