<svg width="260" height="43" viewBox="0 0 260 43" fill="none" xmlns="http://www.w3.org/2000/svg">
<path opacity="0.05" d="M242.237 29.1469L242.906 27.8042L242.237 29.1469ZM258.476 38.4223C259.262 38.1592 259.685 37.3091 259.422 36.5236L255.135 23.7226C254.872 22.937 254.022 22.5135 253.236 22.7766C252.45 23.0397 252.027 23.8898 252.29 24.6754L256.101 36.0541L244.723 39.8652C243.937 40.1283 243.514 40.9784 243.777 41.764C244.04 42.5495 244.89 42.973 245.675 42.7099L258.476 38.4223ZM241.568 30.4895L257.331 38.3426L258.669 35.6574L242.906 27.8042L241.568 30.4895ZM1.75479 38.2963C75.2798 -4.51576 165.414 -7.44995 241.568 30.4895L242.906 27.8042C165.848 -10.5856 74.6432 -7.6166 0.245214 35.7037L1.75479 38.2963Z" fill="black"/>
</svg>
