<svg width="9" height="9" viewBox="0 0 9 9" fill="none" xmlns="http://www.w3.org/2000/svg">
<path opacity="0.2" d="M4.74956 4.08603C4.69065 4.14494 4.68982 4.23953 4.74956 4.29927L7.69057 7.24028C7.74948 7.29919 7.74906 7.39503 7.69057 7.45352L7.45326 7.69083C7.39434 7.74975 7.29934 7.75016 7.24001 7.69083L4.299 4.74983C4.24009 4.69092 4.1455 4.69009 4.08576 4.74983L1.14476 7.69083C1.08584 7.74975 0.990007 7.74933 0.93151 7.69083L0.694199 7.45352C0.635287 7.39461 0.634872 7.2996 0.6942 7.24028L3.6352 4.29927C3.69412 4.24036 3.69495 4.14577 3.6352 4.08603L0.694199 1.14502C0.635286 1.08611 0.635702 0.990275 0.694199 0.931777L0.93151 0.694466C0.990423 0.635554 1.08543 0.635139 1.14475 0.694466L4.08576 3.63547C4.14467 3.69438 4.23926 3.69521 4.29901 3.63547L7.24001 0.694466C7.29892 0.635554 7.39476 0.635969 7.45326 0.694466L7.69057 0.931777C7.74948 0.99069 7.74989 1.0857 7.69057 1.14502L4.74956 4.08603Z" fill="#6B7EAD" stroke="#6C7EAD" stroke-linejoin="round"/>
</svg>
