<svg width="30" height="30" viewBox="0 0 30 30" fill="none" xmlns="http://www.w3.org/2000/svg">
<path d="M15 2.30469C16.6744 2.30469 18.3323 2.62782 19.8792 3.25563C21.4261 3.88344 22.8317 4.80363 24.0156 5.96367C25.1996 7.12371 26.1387 8.50088 26.7795 10.0165C27.4202 11.5322 27.75 13.1567 27.75 14.7972C27.75 16.4378 27.4202 18.0623 26.7795 19.5779C26.1387 21.0936 25.1996 22.4708 24.0156 23.6308C22.8317 24.7909 21.4261 25.711 19.8792 26.3389C18.3323 26.9667 16.6744 27.2898 15 27.2898C11.6185 27.2898 8.37548 25.9736 5.98439 23.6308C3.5933 21.288 2.25 18.1105 2.25 14.7972C2.25 11.484 3.5933 8.30648 5.98439 5.96367C8.37548 3.62086 11.6185 2.30469 15 2.30469ZM10.512 19.9412L5.907 19.9427C6.63656 21.1792 7.62056 22.2537 8.79652 23.0977C9.97249 23.9417 11.3147 24.537 12.738 24.8457C11.786 23.3109 11.0379 21.6632 10.512 19.9427V19.9412ZM19.488 19.9412C18.9625 21.6617 18.215 23.3093 17.2635 24.8442C18.6868 24.536 20.029 23.941 21.205 23.0972C22.381 22.2534 23.365 21.1791 24.0945 19.9427H19.4895L19.488 19.9412ZM17.13 19.9412H12.87C13.365 21.3889 14.076 22.8219 15 24.2387C15.924 22.8204 16.635 21.3874 17.13 19.9412ZM17.7195 11.8578H12.2805C11.9055 13.8007 11.9055 15.7952 12.2805 17.7381H17.7195C18.0945 15.7952 18.0945 13.8007 17.7195 11.8578ZM9.9945 11.8578H4.935C4.64567 12.8119 4.49915 13.802 4.5 14.7972C4.5 15.8187 4.6515 16.8063 4.935 17.7367H9.996C9.66754 15.7903 9.66754 13.8042 9.996 11.8578H9.9945ZM25.065 11.8578H20.004C20.3324 13.8042 20.3324 15.7903 20.004 17.7367H25.065C25.3485 16.8063 25.5 15.8187 25.5 14.7972C25.5 13.7758 25.3485 12.7896 25.065 11.8578ZM12.7365 4.75029L12.5445 4.79291C11.1596 5.12029 9.85707 5.71991 8.71584 6.55539C7.57461 7.39088 6.6185 8.44481 5.9055 9.65325H10.5105C11.01 7.99247 11.7525 6.35815 12.7365 4.75029ZM15 5.35581C14.1131 6.69796 13.3977 8.14173 12.87 9.65472H17.13C16.6023 8.14173 15.8869 6.69796 15 5.35581ZM17.262 4.74882L17.34 4.87521C18.2564 6.37417 18.9785 7.97923 19.4895 9.65325H24.0945C23.3649 8.41627 22.3808 7.34149 21.2045 6.49717C20.0283 5.65286 18.6857 5.05746 17.262 4.74882Z" fill="#EC52A0"/>
</svg>
