<svg width="30" height="30" viewBox="0 0 30 30" fill="none" xmlns="http://www.w3.org/2000/svg">
<path d="M15 2.63281C16.6744 2.63281 18.3323 2.95798 19.8792 3.58974C21.4261 4.22151 22.8317 5.1475 24.0156 6.31485C25.1996 7.4822 26.1387 8.86805 26.7795 10.3933C27.4202 11.9185 27.75 13.5532 27.75 15.2041C27.75 16.855 27.4202 18.4897 26.7795 20.0149C26.1387 21.5401 25.1996 22.926 24.0156 24.0933C22.8317 25.2607 21.4261 26.1867 19.8792 26.8184C18.3323 27.4502 16.6744 27.7754 15 27.7754C11.6185 27.7754 8.37548 26.4509 5.98439 24.0933C3.5933 21.7357 2.25 18.5382 2.25 15.2041C2.25 11.87 3.5933 8.67242 5.98439 6.31485C8.37548 3.95728 11.6185 2.63281 15 2.63281ZM10.512 20.3805L5.907 20.382C6.63656 21.6263 7.62056 22.7075 8.79652 23.5569C9.97249 24.4062 11.3147 25.0052 12.738 25.3158C11.786 23.7714 11.0379 22.1133 10.512 20.382V20.3805ZM19.488 20.3805C18.9625 22.1118 18.215 23.7698 17.2635 25.3143C18.6868 25.0042 20.029 24.4055 21.205 23.5564C22.381 22.7072 23.365 21.6262 24.0945 20.382H19.4895L19.488 20.3805ZM17.13 20.3805H12.87C13.365 21.8373 14.076 23.2793 15 24.705C15.924 23.2778 16.635 21.8358 17.13 20.3805ZM17.7195 12.2461H12.2805C11.9055 14.2013 11.9055 16.2084 12.2805 18.1635H17.7195C18.0945 16.2084 18.0945 14.2013 17.7195 12.2461ZM9.9945 12.2461H4.935C4.64567 13.2062 4.49915 14.2025 4.5 15.2041C4.5 16.232 4.6515 17.2258 4.935 18.162H9.996C9.66754 16.2034 9.66754 14.2048 9.996 12.2461H9.9945ZM25.065 12.2461H20.004C20.3324 14.2048 20.3324 16.2034 20.004 18.162H25.065C25.3485 17.2258 25.5 16.232 25.5 15.2041C25.5 14.1762 25.3485 13.1838 25.065 12.2461ZM12.7365 5.09382L12.5445 5.13671C11.1596 5.46616 9.85707 6.06956 8.71584 6.9103C7.57461 7.75105 6.6185 8.81162 5.9055 10.0277H10.5105C11.01 8.35644 11.7525 6.71182 12.7365 5.09382ZM15 5.70316C14.1131 7.05377 13.3977 8.50664 12.87 10.0292H17.13C16.6023 8.50664 15.8869 7.05377 15 5.70316ZM17.262 5.09235L17.34 5.21954C18.2564 6.72794 18.9785 8.34311 19.4895 10.0277H24.0945C23.3649 8.78291 22.3808 7.70135 21.2045 6.85172C20.0283 6.00208 18.6857 5.40294 17.262 5.09235Z" fill="#EC52A0"/>
</svg>
