<svg width="1425" height="355" viewBox="0 0 1425 355" fill="none" xmlns="http://www.w3.org/2000/svg">
<path d="M1158.5 235.574C1248.85 305.61 1304.1 294.026 1403.3 265.453L1402.61 261.802C1305.06 289.937 1251.15 301.717 1162.03 232.855C1149.93 220.807 1137.56 208.195 1125.71 196.054C1051.13 119.701 961.23 77.4478 859.456 56.3519C737.034 30.8786 614.829 95.3082 496.527 157.68L495.799 158.064L493.698 159.171C441.063 186.915 386.662 215.589 332.719 235.992C262.26 262.734 127.301 297.376 14.1534 229.532L11.4515 232.96C126.09 301.668 262.573 266.688 333.752 239.666C388.616 218.807 443.812 189.68 497.183 161.516L497.324 161.442L497.792 161.195C615.444 99.1696 737.118 35.0235 858.072 60.195C958.502 81.0934 1048.01 122.775 1122.18 198.773C1134.04 210.914 1146.4 223.526 1158.5 235.574Z" fill="url(#paint0_linear)"/>
<path d="M81.1998 82.5107C57.7309 94.3746 33.4607 106.535 4.72641 113.405L6.80755 117.08C36.1068 110.034 60.8169 97.6093 84.5504 85.6757L84.728 85.5864C106.408 74.7447 126.804 64.3994 150.519 57.8847C221.991 38.1352 307.893 72.5488 341.582 88.3159C366.652 100.161 391.281 113.842 415.006 127.053C459.747 152.065 505.989 177.897 558.534 191.869C681.83 224.825 812.291 189.467 938.476 155.267L938.976 155.132L954.413 150.92C1082.01 116.508 1303.48 47.414 1418.73 101.681L1422.23 98.4348C1304.72 43.1018 1081.53 112.348 952.487 147.251L937.051 151.463C811.66 185.522 681.981 220.618 560.663 188.245C509.045 174.416 463.098 148.813 418.653 124.031C394.772 110.814 370.152 97.0239 344.77 85.167C310.326 69.0444 222.29 33.8964 148.274 54.3126C123.921 61.0211 102.234 71.9715 81.1998 82.5107Z" fill="url(#paint1_linear)"/>
<defs>
<linearGradient id="paint0_linear" x1="1415.57" y1="203.924" x2="-40.4805" y2="125.041" gradientUnits="userSpaceOnUse">
<stop stop-color="#2B72FF"/>
<stop offset="1" stop-color="#F75C87"/>
</linearGradient>
<linearGradient id="paint1_linear" x1="-0.182129" y1="115.014" x2="1477.91" y2="41.3571" gradientUnits="userSpaceOnUse">
<stop stop-color="#2B72FF"/>
<stop offset="1" stop-color="#F75C87"/>
</linearGradient>
</defs>
</svg>
