<svg width="42" height="42" viewBox="0 0 42 42" fill="none" xmlns="http://www.w3.org/2000/svg">
<path d="M26 8.39844C27.6744 8.39844 29.3323 8.72223 30.8792 9.35133C32.4261 9.98042 33.8317 10.9025 35.0156 12.0649C36.1996 13.2273 37.1387 14.6073 37.7795 16.1261C38.4202 17.6449 38.75 19.2727 38.75 20.9166C38.75 22.5605 38.4202 24.1883 37.7795 25.7071C37.1387 27.2259 36.1996 28.6059 35.0156 29.7683C33.8317 30.9307 32.4261 31.8528 30.8792 32.4819C29.3323 33.111 27.6744 33.4348 26 33.4348C22.6185 33.4348 19.3755 32.1159 16.9844 29.7683C14.5933 27.4207 13.25 24.2366 13.25 20.9166C13.25 17.5966 14.5933 14.4125 16.9844 12.0649C19.3755 9.71731 22.6185 8.39844 26 8.39844ZM21.512 26.0712L16.907 26.0726C17.6366 27.3117 18.6206 28.3883 19.7965 29.2341C20.9725 30.0799 22.3147 30.6763 23.738 30.9856C22.786 29.4477 22.0379 27.7967 21.512 26.0726V26.0712ZM30.488 26.0712C29.9625 27.7951 29.215 29.4461 28.2635 30.9842C29.6868 30.6753 31.029 30.0791 32.205 29.2336C33.381 28.3881 34.365 27.3116 35.0945 26.0726H30.4895L30.488 26.0712ZM28.13 26.0712H23.87C24.365 27.5218 25.076 28.9577 26 30.3774C26.924 28.9562 27.635 27.5203 28.13 26.0712ZM28.7195 17.9712H23.2805C22.9055 19.918 22.9055 21.9167 23.2805 23.8635H28.7195C29.0945 21.9167 29.0945 19.918 28.7195 17.9712ZM20.9945 17.9712H15.935C15.6457 18.9272 15.4991 19.9193 15.5 20.9166C15.5 21.9402 15.6515 22.9298 15.935 23.8621H20.996C20.6675 21.9117 20.6675 19.9216 20.996 17.9712H20.9945ZM36.065 17.9712H31.004C31.3324 19.9216 31.3324 21.9117 31.004 23.8621H36.065C36.3485 22.9298 36.5 21.9402 36.5 20.9166C36.5 19.8931 36.3485 18.9049 36.065 17.9712ZM23.7365 10.8491L23.5445 10.8918C22.1596 11.2198 20.8571 11.8207 19.7158 12.6579C18.5746 13.4951 17.6185 14.5511 16.9055 15.7621H21.5105C22.01 14.0979 22.7525 12.4602 23.7365 10.8491ZM26 11.4558C25.1131 12.8007 24.3977 14.2475 23.87 15.7635H28.13C27.6023 14.2475 26.8869 12.8007 26 11.4558ZM28.262 10.8476L28.34 10.9742C29.2564 12.4763 29.9785 14.0846 30.4895 15.7621H35.0945C34.3649 14.5226 33.3808 13.4456 32.2045 12.5995C31.0283 11.7535 29.6857 11.1569 28.262 10.8476Z" fill="#EC52A0"/>
</svg>
