<svg width="209" height="36" viewBox="0 0 209 36" fill="none" xmlns="http://www.w3.org/2000/svg">
<path d="M60.3762 14.2031C59.4356 13.3945 58.2162 12.832 56.8575 12.832C55.9168 12.832 54.6974 13.3945 54.6974 14.4844C54.6974 15.7148 56.0562 16.1367 56.9968 16.418L58.3556 16.8398C61.2124 17.6484 63.3724 19.0195 63.3724 22.3242C63.3724 24.3633 62.815 26.4375 61.3517 27.8086C59.7143 29.1797 57.6936 29.7422 55.6381 29.7422C53.06 29.7422 50.6213 28.9336 48.5658 27.4219L50.7258 23.168C52.0845 24.2578 53.5826 25.207 55.3246 25.207C56.5439 25.207 57.9026 24.5391 57.9026 23.168C57.9026 21.6563 55.882 21.1289 54.7671 20.8477C51.4922 19.8984 49.3322 19.0547 49.3322 15.082C49.3322 10.9688 52.189 8.22657 56.2652 8.22657C58.2859 8.22657 60.7595 8.89453 62.5014 9.87891L60.3762 14.2031ZM74.9041 20.3906C74.6254 19.0195 73.4061 18.2109 72.1867 18.2109C70.828 18.2109 69.6086 19.0195 69.3299 20.3906H74.9041ZM79.3984 23.1328H69.1905C69.1905 25.1719 70.2705 26.2969 72.1867 26.2969C73.2667 26.2969 73.9635 26.0156 74.4861 25.0664H79.0848C78.2835 28.4766 75.2874 29.8477 72.1519 29.8477C67.6576 29.8477 64.2782 27.2461 64.2782 22.4648C64.2782 17.8242 67.4137 15.082 71.8731 15.082C76.6113 15.082 79.3287 18.1055 79.3287 22.7461V23.1328H79.3984ZM85.3559 18.3164C86.4359 16.2773 87.934 15.7148 89.8501 15.7148H90.7908V20.3555C89.9895 19.9336 89.4321 19.9336 88.7701 19.9336C86.0527 19.9336 85.3907 21.7266 85.3907 24.0469V29.6719H80.6178V15.8203H85.3559V18.3164ZM98.6644 22.8516L101.939 15.8555H107.374L100.163 29.5664H97.027L89.9547 15.8555H95.3896L98.6644 22.8516ZM112.774 29.5664H107.757V15.7148H112.774V29.5664ZM113.053 11.0742C113.053 12.5859 111.834 13.8164 110.336 13.8164C108.837 13.8164 107.618 12.5859 107.618 11.0742C107.618 9.5625 108.837 8.33203 110.336 8.33203C111.834 8.33203 113.053 9.5625 113.053 11.0742ZM125.142 19.9688C124.341 19.4062 123.505 19.0195 122.564 19.0195C120.648 19.0195 119.185 20.5312 119.185 22.4297C119.185 24.4688 120.683 25.8398 122.564 25.8398C123.365 25.8398 124.202 25.418 125.003 24.8906V29.0039C123.783 29.5664 122.703 29.8125 121.623 29.8125C117.547 29.8125 114.168 26.7891 114.168 22.5703C114.168 18.1758 117.547 15.0469 121.902 15.0469C122.982 15.0469 124.202 15.3281 125.177 15.8555V19.9688H125.142ZM136.953 20.3906C136.674 19.0195 135.455 18.2109 134.235 18.2109C132.876 18.2109 131.657 19.0195 131.378 20.3906H136.953ZM141.412 23.1328H131.239C131.239 25.1719 132.319 26.2969 134.235 26.2969C135.315 26.2969 136.012 26.0156 136.535 25.0664H141.133C140.332 28.4766 137.336 29.8477 134.2 29.8477C129.706 29.8477 126.327 27.2461 126.327 22.4648C126.327 17.8242 129.462 15.082 133.922 15.082C138.66 15.082 141.377 18.1055 141.377 22.7461V23.1328H141.412ZM151.062 29.5664H146.046V13.8164H141.551V9.42188H155.383V13.8164H151.028V29.5664H151.062ZM161.375 29.5664H156.497V15.7148H161.375V29.5664ZM161.654 11.0742C161.654 12.5859 160.434 13.8164 158.936 13.8164C157.438 13.8164 156.219 12.5859 156.219 11.0742C156.219 9.5625 157.438 8.33203 158.936 8.33203C160.434 8.33203 161.654 9.5625 161.654 11.0742ZM169.249 29.5664H164.371V19.8281H162.873V15.8555H164.371V11.6016H169.249V15.8555H171.966V19.8281H169.249V29.5664ZM176.843 22.7109C176.843 24.5039 177.923 25.875 179.979 25.875C182 25.875 183.115 24.5039 183.115 22.7109C183.115 21.0586 182.034 19.5469 179.979 19.5469C178.063 19.5469 176.843 21.0586 176.843 22.7109ZM187.853 29.5664H182.975V28.0547C182.174 29.4258 180.397 30.0937 178.899 30.0937C174.823 30.0937 171.966 26.6836 171.966 22.7109C171.966 18.7383 174.823 15.3281 178.76 15.3281C180.397 15.3281 181.895 15.8906 182.975 17.1211V15.75H187.853V29.5664ZM194.228 17.6484C195.448 15.9961 196.806 15.4688 198.722 15.4688C202.381 15.4688 203.879 17.7891 203.879 21.2344V29.7422H199.001V23.0273C199.001 21.6563 199.28 19.4766 196.841 19.4766C194.82 19.4766 194.263 20.9883 194.263 22.6406V29.7773H189.386V15.9258H194.263V17.6484H194.228ZM206.317 15.0469V15.6094H206.735C207.014 15.6094 207.537 15.6094 207.537 15.3281C207.537 15.0469 207.258 15.0469 206.979 15.0469H206.317ZM207.781 17.0859H207.363L206.805 15.9961H206.248V17.0859H205.969V14.625H206.91C207.328 14.625 207.711 14.7656 207.711 15.293C207.711 15.7148 207.432 15.9609 207.049 15.9609L207.781 17.0859ZM205.098 15.8555C205.098 16.8047 205.899 17.6484 206.875 17.6484C207.815 17.6484 208.652 16.8398 208.652 15.8555C208.652 14.9062 207.85 14.0625 206.875 14.0625C205.899 14.0977 205.098 14.7656 205.098 15.8555ZM204.68 15.8555C204.68 14.625 205.621 13.6758 206.84 13.6758C208.059 13.6758 209 14.625 209 15.8555C209 17.0859 208.059 18.0352 206.84 18.0352C205.621 17.9297 204.68 16.9453 204.68 15.8555ZM3.3794 32.8359C3.3794 32.8359 5.40007 33.6445 5.40007 34.4883C5.40007 34.4883 5.26071 35.1563 4.59877 35.1563C3.93682 35.1563 2.96133 34.0664 2.96133 33.5039C2.96133 32.9414 3.3794 32.8359 3.3794 32.8359ZM1.21937 22.5703C1.08001 22.5703 1.08001 22.4297 1.21937 22.5703C1.08001 22.4297 1.08002 22.4297 1.08002 22.4297C0.661946 22.5703 0 23.0977 0 24.082C0 27.7734 9.89432 28.1953 15.3292 34.9102C15.8866 35.5781 16.8273 36 17.768 36C18.9873 36 20.2067 35.8594 21.2867 35.7187C21.4261 35.7187 21.5654 35.5781 21.5654 35.4375C21.5654 35.2969 21.5654 35.1562 21.5654 35.0156C14.9112 25.875 2.29938 28.0547 1.21937 22.5703ZM15.4686 10.9336C14.8066 10.2656 13.0298 10.793 12.0892 11.6016C11.1485 12.4102 11.5318 12.9727 11.5318 12.9727C12.3331 11.8828 13.5524 11.3203 14.3886 11.1797C15.0505 11.2148 15.4686 10.9336 15.4686 10.9336ZM35.8146 12.832C35.8146 12.832 34.4559 13.1133 33.2365 11.7422C33.2365 11.7422 33.794 11.7422 33.8985 11.0742C33.794 11.0742 34.5953 12.5859 35.8146 12.832ZM35.3966 19.1602C35.3966 19.1602 35.1179 20.6719 33.3759 20.6719C31.4597 20.6719 29.8571 18.0703 29.2997 11.918C29.7178 12.5859 30.2404 13.2891 30.5191 14.0977C30.5191 13.2891 30.9372 11.7773 29.021 10.4063C29.021 10.4063 34.0378 11.4961 34.1772 16.6992C34.1772 17.6484 33.6198 18.4922 33.3759 18.8789C33.3759 18.8789 33.0972 19.0195 33.2365 19.4414C33.3759 19.7227 33.794 19.7227 34.1772 19.3008C34.5604 18.8789 35.3966 18.3164 35.3966 19.1602ZM28.3591 22.0078C28.3591 22.0078 27.0003 24.6094 25.0842 24.6094C24.2829 24.6094 23.7255 24.0469 23.7255 23.3789C23.7255 22.7109 24.6661 19.9688 28.6029 19.9688C29.5436 19.9688 30.2404 20.1094 30.2404 20.7773C30.3797 21.1992 29.4391 22.1484 28.3591 22.0078ZM28.3591 9C28.3591 9 27.8016 8.85938 27.941 8.05078C28.0803 7.76953 28.0803 7.76953 28.0803 7.38281C28.0803 6.96094 28.2197 6.57422 28.4984 6.43359C28.4984 6.43359 29.0558 6.4336 29.0558 7.94531C29.021 8.61328 28.3591 9 28.3591 9ZM26.5823 9C25.781 8.85938 26.3035 7.6289 25.781 7.6289C25.5022 7.6289 25.5023 9 25.2235 8.85937C24.6661 8.4375 25.0842 7.48828 25.0842 7.06641C25.0842 6.64453 25.3629 6.11719 24.9448 6.39844C24.5268 6.67969 24.2829 7.34766 24.1435 7.91016C24.0042 8.47266 24.2829 8.71875 24.5616 9.42188C24.8403 10.0898 24.4222 9.84375 24.4222 9.84375C22.4016 8.61328 23.8648 5.87109 23.8648 5.87109C24.8055 4.35937 26.1642 4.78125 26.1642 4.78125C26.4429 4.92188 26.4429 5.0625 26.4429 5.34375C26.4429 5.625 26.5823 5.76563 26.861 5.90625C27.279 6.04688 27.4184 6.46875 27.4184 7.27734C27.4184 8.1914 26.861 9.14063 26.5823 9ZM29.7178 8.85937L33.0972 9.94922C33.0972 9.94922 33.7591 11.1797 32.4352 10.7578C31.2159 10.3359 29.9965 10.0898 29.9965 10.0898C29.9965 10.0898 29.4391 9.70312 29.7178 8.85937ZM13.0298 14.0625C10.5911 14.4844 9.75496 13.7812 9.75496 13.1133C9.75496 11.1797 15.3292 9.70313 16.8273 9.70313C17.106 10.125 16.5486 10.125 16.4092 10.793C16.1305 11.4609 15.6079 11.7422 14.7718 11.8828C13.9705 12.0234 13.1344 12.4453 12.6118 12.832C12.0543 13.2539 12.6118 13.5 13.5524 13.2539C14.4931 12.9727 14.6324 13.3945 15.0505 13.2539C15.4686 13.1133 15.0505 12.5859 15.3292 12.5859C15.6079 12.4453 16.1305 12.8672 16.1305 12.8672L17.4892 13.8164L15.8518 14.625C15.7125 14.625 15.5731 14.7656 15.5731 15.0469C15.5731 15.3281 16.3744 15.3281 16.7925 15.3281C17.0712 15.3281 17.2105 15.8906 17.2105 15.8906C16.7925 16.4531 15.5731 16.4531 15.5731 16.4531C15.8518 17.0156 17.3499 16.875 17.5938 17.0156C17.8725 17.0156 17.8725 17.4375 18.1512 18.1055C18.2905 18.7734 19.2312 19.0547 19.2312 19.0547C19.5099 20.1445 18.2905 20.4258 17.4544 20.4258C12.4724 20.1094 13.0298 14.0625 13.0298 14.0625ZM13.5524 6.39844C13.4131 6.39844 13.4131 6.39844 13.5524 6.39844C13.1344 4.35937 13.9705 2.00391 13.9705 2.00391C13.9705 2.00391 11.9498 3.65625 12.0543 6.39844C10.2775 6.39844 7.69945 6.53906 6.20137 7.91016C4.04134 9.70312 3.76263 13.1133 3.62327 14.0625C3.62327 14.0625 3.62327 14.2031 3.48391 14.2031H3.34456C2.78713 13.9219 1.70712 12.832 2.54326 10.5117C3.62327 7.48828 6.89815 1.47656 13.2737 1.05469C13.2737 1.05469 15.2944 0.914066 16.5486 1.72266C16.5486 1.72266 16.6879 1.72266 16.6879 1.86328V2.00391C16.1305 2.42578 14.3886 4.04297 13.8311 6.53906C13.8311 6.67969 13.6918 6.67969 13.6918 6.67969C13.6918 6.39844 13.5524 6.39844 13.5524 6.39844ZM18.3254 14.4844C18.3254 14.4844 18.8828 17.0859 20.1022 18.0352C20.1022 18.0352 20.1022 18.3164 19.6841 18.3164C19.266 18.3164 18.6041 17.7539 18.3254 16.2773C18.0467 14.9062 18.3254 14.4844 18.3254 14.4844ZM20.0673 7.91016C18.5693 7.91016 17.9073 6.53906 17.9073 6.53906C17.9073 6.53906 19.6841 8.19141 22.1229 6.82032C22.1229 6.96094 21.5654 7.91016 20.0673 7.91016ZM38.8108 10.125C38.3927 9.31641 37.8701 8.75391 36.6508 8.47266C35.5708 8.19141 34.6301 8.33203 33.9333 8.89453L31.7733 8.08594C31.4946 7.52344 31.3552 6.99609 31.1114 6.57422C30.972 6.15234 30.6933 5.90625 30.4494 5.76563C28.9513 4.95703 25.0145 2.88281 23.5164 4.95703C23.5164 4.95703 23.3771 5.09766 23.3771 5.23828L22.8196 5.09766C22.5409 4.28906 21.7396 3.58594 20.6596 3.30469C19.9977 3.16407 19.3009 3.16406 18.7435 3.44531C18.3254 3.58594 18.3254 4.11328 18.7435 4.25391L20.5203 4.92187C20.9383 5.0625 21.1822 5.48437 20.9383 5.87109C20.799 6.29297 20.3809 6.53907 19.9977 6.29297C19.9977 6.29297 18.9177 6.01172 18.0815 5.73047C17.6634 5.58984 17.2802 6.01172 17.4196 6.39844C17.6983 7.20703 18.4996 8.05078 19.5796 8.33203C20.5203 8.61328 21.4957 8.33203 22.1577 7.91016L22.5758 8.05078C22.5758 9 23.3771 10.2305 24.0738 10.6523C25.1539 11.3203 26.0945 10.793 27.2094 10.0898C27.2094 10.0898 30.0662 12.2695 28.7075 18.7031C25.1887 19.125 23.83 20.3555 22.6106 21.7266C21.8093 21.4453 19.3357 21.1641 18.0118 21.5859C18.4299 21.1641 18.9525 20.7773 19.7886 20.4961C20.2067 20.3555 20.3461 20.0742 20.3461 19.6875C20.3461 19.6875 21.9835 19.125 21.9835 18.5977C21.9835 18.0352 19.9628 18.0352 19.1267 13.6758C18.9873 13.1133 18.848 12.7266 18.0467 12.4453C18.0467 12.4453 17.768 12.0234 18.186 11.4961C18.6041 10.9336 18.7435 10.8281 18.6041 10.4063C18.4647 9.98438 17.9422 9.73828 17.9422 9.73828V9.07031C17.9422 9.07031 16.3047 7.83984 16.3047 6.04687C16.3047 4.25391 18.6041 2.21484 19.1615 1.65234V1.51172C19.1615 1.51172 19.1615 1.3711 19.0222 1.3711C18.2209 0.808597 16.7228 0 14.284 0C4.77296 0 2.61294 8.61328 0.557428 12.7266C0.557428 12.8672 0.557428 12.8672 0.557428 13.0078C2.5781 17.1211 5.85297 16.6992 6.13169 20.25C6.27104 22.9922 5.57426 22.9922 5.05167 22.9922C4.63361 22.9922 3.97166 22.5703 3.69295 22.3242H3.55359C3.55359 22.3242 3.41423 22.4648 3.55359 22.4648C3.8323 23.1328 4.49425 24.7852 6.68911 24.7852C7.76913 24.7852 8.04784 23.8359 8.04784 22.8516V19.6875C8.04784 19.4063 7.90849 19.125 7.76913 18.8789C7.10719 18.2109 5.46974 16.6992 5.46974 15.4688C5.46974 14.9063 5.88781 14.6602 6.27104 14.6602C7.07234 14.6602 7.90848 15.8906 8.57043 17.543C8.70978 17.9648 8.9885 18.2109 9.12785 18.3516H9.26721C9.26721 18.3516 9.26721 18.3516 9.26721 18.2109C8.9885 17.2617 8.9885 16.2773 8.84914 15.8906C8.84914 15.75 8.70978 15.4687 8.57043 15.3281C7.90848 14.7656 6.27104 13.1484 6.27104 10.6875C6.27104 7.38281 11.5666 7.66406 12.6466 7.66406C12.9253 8.75391 13.5873 9.31641 14.0053 9.45703C12.3679 10.0195 8.84914 11.25 8.84914 13.2891C8.84914 15.4688 12.5073 15.3281 12.5073 15.3281C12.5073 15.3281 11.9498 19.7227 16.026 21.0938C16.026 21.0938 15.3641 21.7617 13.1692 21.7617C11.1485 21.7617 10.173 20.8125 9.65044 19.7227C9.65044 19.7227 9.65044 19.582 9.51109 19.582C9.51109 19.582 9.37173 19.582 9.37173 19.7227C9.23237 20.0039 9.23237 20.5313 9.51109 21.0938C10.0685 22.043 10.8698 22.6055 10.8698 23.8359C10.8698 24.7852 10.0685 25.3477 9.65044 25.4883C10.4517 25.6289 14.1447 26.5781 16.5834 27.8086C16.8621 27.668 19.0222 26.2969 19.1615 24.3984C19.1615 24.3984 19.3009 23.168 17.5241 23.0273C17.5241 23.0273 18.3254 22.7461 19.6841 22.7461C21.0428 22.7461 22.5409 23.8359 19.8235 29.6016C19.8235 29.6016 19.8235 29.6016 19.8235 29.7422C20.2415 30.0234 23.3422 32.0625 25.3977 33.9961H25.5371C25.5371 33.9961 25.6764 33.9961 25.6764 33.8555C25.9552 33.5742 26.4777 32.625 26.7565 30.3047C26.7565 30.0234 26.8958 29.8828 27.1745 29.8828C28.3939 29.4609 32.4701 28.2305 34.2469 25.7695C36.2675 22.8867 37.1037 22.4648 37.1037 22.4648C37.1037 22.4648 38.4624 21.6562 37.905 19.582C37.6263 18.4922 35.9888 15.75 34.3862 12.8672C34.8043 13.1484 35.1875 13.2891 35.6056 13.4297C36.5463 13.7109 37.5218 13.5703 38.1837 13.1484C38.3231 13.0078 38.4624 12.8672 38.4624 12.7266C38.4624 12.5859 38.3231 12.4453 38.1837 12.3047L36.4069 11.6367C35.9888 11.4961 35.745 10.9687 35.8495 10.5469C35.9888 10.125 36.5114 9.87891 36.9295 9.98438L38.5669 10.5469C38.7063 10.5469 38.8456 10.5469 38.985 10.4063C38.9502 10.2305 38.8108 10.3711 38.8108 10.125ZM14.7718 15.293C14.7718 15.293 14.1099 15.4336 14.2144 16.5234C14.3537 17.4727 15.155 17.4727 15.155 17.4727C14.4931 16.6641 14.7718 15.293 14.7718 15.293ZM2.96133 28.8633C5.40007 30.2344 10.835 31.8867 11.915 34.7695C11.915 34.7695 12.3331 35.4375 10.1382 35.4375C8.50075 35.4375 8.11752 35.0156 7.00267 33.6445C5.36523 31.7109 1.98583 30.4805 1.98583 29.0039C1.88131 29.1445 2.02067 28.3359 2.96133 28.8633Z" fill="#1A2F56"/>
</svg>
