<svg width="21" height="15" viewBox="0 0 21 15" fill="none" xmlns="http://www.w3.org/2000/svg">
<path d="M16.4651 4.65595C16.3182 4.08563 15.8855 3.63648 15.336 3.48405C14.3401 3.20703 10.3464 3.20703 10.3464 3.20703C10.3464 3.20703 6.35283 3.20703 5.35691 3.48405C4.80742 3.63648 4.37465 4.08563 4.22782 4.65595C3.96094 5.68973 3.96094 7.84652 3.96094 7.84652C3.96094 7.84652 3.96094 10.0033 4.22782 11.0371C4.37465 11.6074 4.80742 12.0565 5.35691 12.209C6.35283 12.486 10.3464 12.486 10.3464 12.486C10.3464 12.486 14.3401 12.486 15.336 12.209C15.8855 12.0565 16.3182 11.6074 16.4651 11.0371C16.732 10.0033 16.732 7.84652 16.732 7.84652C16.732 7.84652 16.732 5.68973 16.4651 4.65595Z" fill="black"/>
<path d="M9.04102 9.80311L12.3789 7.845L9.04102 5.88672V9.80311Z" fill="white"/>
</svg>
