<svg width="15" height="17" viewBox="0 0 15 17" fill="none" xmlns="http://www.w3.org/2000/svg">
<path d="M11.6722 15.3596C10.771 16.2012 9.77667 16.07 8.82893 15.6732C7.82133 15.2684 6.90019 15.2428 5.83606 15.6732C4.51088 16.2236 3.80756 16.0636 3.00946 15.3596C-1.49648 10.8956 -0.831395 4.09562 4.28974 3.83962C5.53178 3.90362 6.40138 4.50042 7.13297 4.55002C8.22038 4.33722 9.26123 3.72762 10.4251 3.80762C11.8235 3.91642 12.8693 4.44762 13.5676 5.40282C10.6912 7.06682 11.3729 10.7148 14.0149 11.7388C13.4862 13.0748 12.8078 14.3948 11.6705 15.3708L11.6722 15.3596ZM7.03321 3.79162C6.89853 1.80762 8.56955 0.175625 10.4916 0.015625C10.756 2.30362 8.33012 4.01562 7.03321 3.79162Z" fill="white"/>
</svg>
