<svg width="126" height="130" viewBox="0 0 126 130" fill="none" xmlns="http://www.w3.org/2000/svg">
<path opacity="0.05" d="M95.3293 110.084L95.9455 108.716L95.3293 110.084ZM124.531 124.403C125.306 124.109 125.696 123.243 125.403 122.469L120.62 109.844C120.327 109.069 119.461 108.679 118.686 108.973C117.911 109.266 117.521 110.132 117.815 110.907L122.066 122.129L110.844 126.38C110.069 126.673 109.679 127.539 109.973 128.314C110.266 129.089 111.132 129.479 111.907 129.185L124.531 124.403ZM94.7132 111.452L123.384 124.368L124.616 121.632L95.9455 108.716L94.7132 111.452ZM0.553511 1.39708C13.9724 50.2802 48.4952 90.6306 94.7132 111.452L95.9455 108.716C50.5426 88.2626 16.6287 48.6238 3.44649 0.602925L0.553511 1.39708Z" fill="black"/>
</svg>
