<svg width="12" height="12" viewBox="0 0 12 12" fill="none" xmlns="http://www.w3.org/2000/svg">
<path d="M9.41675 2.61592C9.41675 2.24274 9.11 1.94141 8.73294 1.94141C8.35585 1.94141 8.04883 2.24274 8.04883 2.61592C8.04883 2.98773 8.35585 3.28906 8.73294 3.28906C9.11 3.28906 9.41675 2.98773 9.41675 2.61592Z" fill="#161616"/>
<path d="M10.3284 7.88067C10.3031 8.42811 10.2102 8.72554 10.1331 8.92308C10.0295 9.18501 9.90602 9.37229 9.70566 9.56874C9.50755 9.76518 9.3176 9.8867 9.05195 9.98769C8.85159 10.0648 8.54879 10.1567 7.9936 10.1828C7.39336 10.2088 7.2155 10.2144 5.69339 10.2144C4.17268 10.2144 3.99341 10.2088 3.39317 10.1828C2.83798 10.1567 2.53659 10.0648 2.33622 9.98769C2.06917 9.8867 1.88064 9.76518 1.6814 9.56874C1.48075 9.37229 1.35722 9.18501 1.25507 8.92308C1.17795 8.72554 1.0837 8.42811 1.05976 7.88067C1.03051 7.28885 1.02515 7.11072 1.02515 5.613C1.02515 4.11222 1.03051 3.93547 1.05976 3.34365C1.0837 2.79623 1.17795 2.49907 1.25507 2.29984C1.35722 2.03821 1.48075 1.85202 1.6814 1.65558C1.88064 1.45943 2.06917 1.33761 2.33622 1.23552C2.53659 1.15811 2.83798 1.06765 3.39317 1.04158C3.99341 1.01548 4.17268 1.00882 5.69339 1.00882C7.2155 1.00882 7.39336 1.01548 7.9936 1.04158C8.54879 1.06765 8.85159 1.15811 9.05195 1.23552C9.3176 1.33761 9.50755 1.45943 9.70566 1.65558C9.90602 1.85202 10.0295 2.03821 10.1331 2.29984C10.2102 2.49907 10.3031 2.79623 10.3284 3.34365C10.3563 3.93547 10.363 4.11222 10.363 5.613C10.363 7.11072 10.3563 7.28885 10.3284 7.88067ZM11.3536 3.2976C11.3257 2.69939 11.23 2.29069 11.0879 1.93472C10.9433 1.56542 10.7494 1.25244 10.432 0.939467C10.116 0.627887 9.79853 0.43671 9.42397 0.292439C9.06153 0.153702 8.64841 0.0582485 8.04142 0.0321741C7.43443 0.00331116 7.24056 -0.00195312 5.69339 -0.00195312C4.14763 -0.00195312 3.95234 0.00331116 3.34535 0.0321741C2.73975 0.0582485 2.32693 0.153702 1.9628 0.292439C1.58966 0.43671 1.27223 0.627887 0.956221 0.939467C0.638796 1.25244 0.444901 1.56542 0.298852 1.93472C0.158143 2.29069 0.0624719 2.69939 0.0331987 3.2976C0.00675372 3.89608 0 4.08752 0 5.613C0 7.13709 0.00675372 7.32824 0.0331987 7.92672C0.0624719 8.52383 0.158143 8.93224 0.298852 9.28989C0.444901 9.6578 0.638796 9.97217 0.956221 10.2837C1.27223 10.5953 1.58966 10.7879 1.9628 10.9319C2.32693 11.0706 2.73975 11.165 3.34535 11.1924C3.95234 11.2199 4.14763 11.2266 5.69339 11.2266C7.24056 11.2266 7.43443 11.2199 8.04142 11.1924C8.64841 11.165 9.06153 11.0706 9.42397 10.9319C9.79853 10.7879 10.116 10.5953 10.432 10.2837C10.7494 9.97217 10.9433 9.6578 11.0879 9.28989C11.23 8.93224 11.3257 8.52383 11.3536 7.92672C11.3814 7.32824 11.3882 7.13709 11.3882 5.613C11.3882 4.08752 11.3814 3.89608 11.3536 3.2976Z" fill="#161616"/>
<path d="M5.6932 7.48411C4.64553 7.48411 3.79541 6.64744 3.79541 5.61465C3.79541 4.5802 4.64553 3.74245 5.6932 3.74245C6.74116 3.74245 7.59241 4.5802 7.59241 5.61465C7.59241 6.64744 6.74116 7.48411 5.6932 7.48411ZM5.6932 2.73047C4.07822 2.73047 2.77026 4.02262 2.77026 5.61465C2.77026 7.20532 4.07822 8.49609 5.6932 8.49609C7.30818 8.49609 8.61755 7.20532 8.61755 5.61465C8.61755 4.02262 7.30818 2.73047 5.6932 2.73047Z" fill="#161616"/>
</svg>
