<svg width="30" height="31" viewBox="0 0 30 31" fill="none" xmlns="http://www.w3.org/2000/svg">
<path d="M14.9995 2.85156C16.6739 2.85156 18.3318 3.17469 19.8787 3.8025C21.4256 4.43031 22.8312 5.35051 24.0151 6.51055C25.1991 7.67059 26.1382 9.04776 26.779 10.5634C27.4197 12.0791 27.7495 13.7036 27.7495 15.3441C27.7495 16.9847 27.4197 18.6091 26.779 20.1248C26.1382 21.6405 25.1991 23.0176 24.0151 24.1777C22.8312 25.3377 21.4256 26.2579 19.8787 26.8857C18.3318 27.5135 16.6739 27.8367 14.9995 27.8367C11.618 27.8367 8.37499 26.5205 5.9839 24.1777C3.59281 21.8349 2.24951 18.6573 2.24951 15.3441C2.24951 12.0309 3.59281 8.85336 5.9839 6.51055C8.37499 4.16774 11.618 2.85156 14.9995 2.85156ZM10.5115 20.4881L5.90651 20.4896C6.63607 21.7261 7.62007 22.8005 8.79603 23.6446C9.972 24.4886 11.3142 25.0839 12.7375 25.3925C11.7855 23.8578 11.0374 22.2101 10.5115 20.4896V20.4881ZM19.4875 20.4881C18.962 22.2085 18.2145 23.8562 17.263 25.3911C18.6863 25.0828 20.0285 24.4879 21.2045 23.6441C22.3805 22.8003 23.3645 21.726 24.094 20.4896H19.489L19.4875 20.4881ZM17.1295 20.4881H12.8695C13.3645 21.9358 14.0755 23.3687 14.9995 24.7855C15.9235 23.3673 16.6345 21.9343 17.1295 20.4881ZM17.719 12.4047H12.28C11.9051 14.3476 11.9051 16.3421 12.28 18.285H17.719C18.094 16.3421 18.094 14.3476 17.719 12.4047ZM9.99401 12.4047H4.93451C4.64518 13.3587 4.49866 14.3489 4.49951 15.3441C4.49951 16.3656 4.65101 17.3532 4.93451 18.2835H9.99551C9.66705 16.3371 9.66705 14.3511 9.99551 12.4047H9.99401ZM25.0645 12.4047H20.0035C20.3319 14.3511 20.3319 16.3371 20.0035 18.2835H25.0645C25.348 17.3532 25.4995 16.3656 25.4995 15.3441C25.4995 14.3227 25.348 13.3365 25.0645 12.4047ZM12.736 5.29716L12.544 5.33979C11.1591 5.66717 9.85658 6.26679 8.71535 7.10227C7.57412 7.93775 6.61801 8.99168 5.90501 10.2001H10.51C11.0095 8.53935 11.752 6.90503 12.736 5.29716ZM14.9995 5.90269C14.1126 7.24483 13.3973 8.68861 12.8695 10.2016H17.1295C16.6018 8.68861 15.8864 7.24483 14.9995 5.90269ZM17.2615 5.29569L17.3395 5.42209C18.2559 6.92105 18.978 8.5261 19.489 10.2001H24.094C23.3644 8.96315 22.3803 7.88836 21.204 7.04405C20.0278 6.19973 18.6852 5.60434 17.2615 5.29569Z" fill="#EC52A0"/>
</svg>
