<svg width="13" height="12" viewBox="0 0 13 12" fill="none" xmlns="http://www.w3.org/2000/svg">
<path d="M10.2742 2.99897C10.2742 2.62809 9.96743 2.32861 9.59036 2.32861C9.21327 2.32861 8.90625 2.62809 8.90625 2.99897C8.90625 3.3685 9.21327 3.66797 9.59036 3.66797C9.96743 3.66797 10.2742 3.3685 10.2742 2.99897Z" fill="black"/>
<path d="M11.1858 8.22989C11.1605 8.77388 11.0676 9.06943 10.9905 9.26573C10.887 9.52601 10.7634 9.71211 10.5631 9.90731C10.365 10.1025 10.175 10.2233 9.90937 10.3236C9.70901 10.4003 9.40622 10.4915 8.85102 10.5175C8.25078 10.5434 8.07293 10.5489 6.55081 10.5489C5.0301 10.5489 4.85083 10.5434 4.2506 10.5175C3.6954 10.4915 3.39401 10.4003 3.19364 10.3236C2.92659 10.2233 2.73806 10.1025 2.53882 9.90731C2.33817 9.71211 2.21465 9.52601 2.1125 9.26573C2.03538 9.06943 1.94112 8.77388 1.91719 8.22989C1.88793 7.6418 1.88257 7.4648 1.88257 5.97652C1.88257 4.48521 1.88793 4.30957 1.91719 3.72148C1.94112 3.17752 2.03538 2.88223 2.1125 2.68426C2.21465 2.42427 2.33817 2.23926 2.53882 2.04406C2.73806 1.84914 2.92659 1.72809 3.19364 1.62665C3.39401 1.54972 3.6954 1.45984 4.2506 1.43393C4.85083 1.40799 5.0301 1.40138 6.55081 1.40138C8.07293 1.40138 8.25078 1.40799 8.85102 1.43393C9.40622 1.45984 9.70901 1.54972 9.90937 1.62665C10.175 1.72809 10.365 1.84914 10.5631 2.04406C10.7634 2.23926 10.887 2.42427 10.9905 2.68426C11.0676 2.88223 11.1605 3.17752 11.1858 3.72148C11.2137 4.30957 11.2204 4.48521 11.2204 5.97652C11.2204 7.4648 11.2137 7.6418 11.1858 8.22989ZM12.211 3.67572C12.1831 3.08128 12.0874 2.67516 11.9453 2.32144C11.8007 1.95446 11.6068 1.64346 11.2894 1.33246C10.9734 1.02284 10.6559 0.83287 10.2814 0.689508C9.91895 0.551647 9.50583 0.456795 8.89884 0.430885C8.29185 0.402205 8.09798 0.396973 6.55081 0.396973C5.00505 0.396973 4.80976 0.402205 4.20277 0.430885C3.59717 0.456795 3.18435 0.551647 2.82022 0.689508C2.44708 0.83287 2.12965 1.02284 1.81364 1.33246C1.49622 1.64346 1.30232 1.95446 1.15627 2.32144C1.01556 2.67516 0.919894 3.08128 0.890621 3.67572C0.864176 4.27042 0.857422 4.46066 0.857422 5.97652C0.857422 7.491 0.864176 7.68095 0.890621 8.27565C0.919894 8.869 1.01556 9.27483 1.15627 9.63022C1.30232 9.99582 1.49622 10.3082 1.81364 10.6178C2.12965 10.9274 2.44708 11.1188 2.82022 11.2619C3.18435 11.3997 3.59717 11.4935 4.20277 11.5208C4.80976 11.5481 5.00505 11.5547 6.55081 11.5547C8.09798 11.5547 8.29185 11.5481 8.89884 11.5208C9.50583 11.4935 9.91895 11.3997 10.2814 11.2619C10.6559 11.1188 10.9734 10.9274 11.2894 10.6178C11.6068 10.3082 11.8007 9.99582 11.9453 9.63022C12.0874 9.27483 12.1831 8.869 12.211 8.27565C12.2389 7.68095 12.2456 7.491 12.2456 5.97652C12.2456 4.46066 12.2389 4.27042 12.211 3.67572Z" fill="black"/>
<path d="M6.55087 7.83421C5.5032 7.83421 4.65308 7.00278 4.65308 5.97646C4.65308 4.94849 5.5032 4.11599 6.55087 4.11599C7.59883 4.11599 8.45007 4.94849 8.45007 5.97646C8.45007 7.00278 7.59883 7.83421 6.55087 7.83421ZM6.55087 3.11035C4.93589 3.11035 3.62793 4.3944 3.62793 5.97646C3.62793 7.55716 4.93589 8.83984 6.55087 8.83984C8.16585 8.83984 9.47522 7.55716 9.47522 5.97646C9.47522 4.3944 8.16585 3.11035 6.55087 3.11035Z" fill="black"/>
</svg>
