<svg width="13" height="12" viewBox="0 0 13 12" fill="none" xmlns="http://www.w3.org/2000/svg">
<path d="M10.2742 3.09477C10.2742 2.73802 9.96743 2.44995 9.59036 2.44995C9.21327 2.44995 8.90625 2.73802 8.90625 3.09477C8.90625 3.45022 9.21327 3.73828 9.59036 3.73828C9.96743 3.73828 10.2742 3.45022 10.2742 3.09477Z" fill="black"/>
<path d="M11.1858 8.12356C11.1605 8.64659 11.0676 8.93076 10.9905 9.1195C10.887 9.36976 10.7634 9.54869 10.5631 9.73638C10.365 9.92406 10.175 10.0402 9.90937 10.1367C9.70901 10.2104 9.40622 10.2981 8.85102 10.323C8.25078 10.3479 8.07293 10.3533 6.55081 10.3533C5.0301 10.3533 4.85083 10.3479 4.2506 10.323C3.6954 10.2981 3.39401 10.2104 3.19364 10.1367C2.92659 10.0402 2.73806 9.92406 2.53882 9.73638C2.33817 9.54869 2.21465 9.36976 2.1125 9.1195C2.03538 8.93076 1.94112 8.64659 1.91719 8.12356C1.88793 7.55812 1.88257 7.38793 1.88257 5.95697C1.88257 4.52308 1.88793 4.3542 1.91719 3.78876C1.94112 3.26575 2.03538 2.98183 2.1125 2.79148C2.21465 2.54151 2.33817 2.36363 2.53882 2.17594C2.73806 1.98853 2.92659 1.87214 3.19364 1.7746C3.39401 1.70064 3.6954 1.61422 4.2506 1.5893C4.85083 1.56437 5.0301 1.55801 6.55081 1.55801C8.07293 1.55801 8.25078 1.56437 8.85102 1.5893C9.40622 1.61422 9.70901 1.70064 9.90937 1.7746C10.175 1.87214 10.365 1.98853 10.5631 2.17594C10.7634 2.36363 10.887 2.54151 10.9905 2.79148C11.0676 2.98183 11.1605 3.26575 11.1858 3.78876C11.2137 4.3542 11.2204 4.52308 11.2204 5.95697C11.2204 7.38793 11.2137 7.55812 11.1858 8.12356ZM12.211 3.74476C12.1831 3.17322 12.0874 2.78274 11.9453 2.44264C11.8007 2.08979 11.6068 1.79077 11.2894 1.49174C10.9734 1.19405 10.6559 1.0114 10.2814 0.873555C9.91895 0.741003 9.50583 0.649804 8.89884 0.624892C8.29185 0.597316 8.09798 0.592285 6.55081 0.592285C5.00505 0.592285 4.80976 0.597316 4.20277 0.624892C3.59717 0.649804 3.18435 0.741003 2.82022 0.873555C2.44708 1.0114 2.12965 1.19405 1.81364 1.49174C1.49622 1.79077 1.30232 2.08979 1.15627 2.44264C1.01556 2.78274 0.919894 3.17322 0.890621 3.74476C0.864176 4.31657 0.857422 4.49948 0.857422 5.95697C0.857422 7.41312 0.864176 7.59575 0.890621 8.16756C0.919894 8.73805 1.01556 9.12825 1.15627 9.46996C1.30232 9.82147 1.49622 10.1218 1.81364 10.4195C2.12965 10.7172 2.44708 10.9012 2.82022 11.0388C3.18435 11.1713 3.59717 11.2615 4.20277 11.2877C4.80976 11.314 5.00505 11.3203 6.55081 11.3203C8.09798 11.3203 8.29185 11.314 8.89884 11.2877C9.50583 11.2615 9.91895 11.1713 10.2814 11.0388C10.6559 10.9012 10.9734 10.7172 11.2894 10.4195C11.6068 10.1218 11.8007 9.82147 11.9453 9.46996C12.0874 9.12825 12.1831 8.73805 12.211 8.16756C12.2389 7.59575 12.2456 7.41312 12.2456 5.95697C12.2456 4.49948 12.2389 4.31657 12.211 3.74476Z" fill="black"/>
<path d="M6.54989 7.74399C5.50222 7.74399 4.6521 6.94456 4.6521 5.95773C4.6521 4.96932 5.50222 4.16885 6.54989 4.16885C7.59785 4.16885 8.4491 4.96932 8.4491 5.95773C8.4491 6.94456 7.59785 7.74399 6.54989 7.74399ZM6.54989 3.2019C4.93491 3.2019 3.62695 4.43655 3.62695 5.95773C3.62695 7.47761 4.93491 8.71094 6.54989 8.71094C8.16487 8.71094 9.47424 7.47761 9.47424 5.95773C9.47424 4.43655 8.16487 3.2019 6.54989 3.2019Z" fill="black"/>
</svg>
