<svg width="30" height="30" viewBox="0 0 30 30" fill="none" xmlns="http://www.w3.org/2000/svg">
<path d="M15 2.21875C16.6744 2.21875 18.3323 2.54392 19.8792 3.17568C21.4261 3.80745 22.8317 4.73344 24.0156 5.90079C25.1996 7.06814 26.1387 8.45399 26.7795 9.97921C27.4202 11.5044 27.75 13.1391 27.75 14.79C27.75 16.4409 27.4202 18.0756 26.7795 19.6008C26.1387 21.1261 25.1996 22.5119 24.0156 23.6793C22.8317 24.8466 21.4261 25.7726 19.8792 26.4044C18.3323 27.0361 16.6744 27.3613 15 27.3613C11.6185 27.3613 8.37548 26.0368 5.98439 23.6793C3.5933 21.3217 2.25 18.1241 2.25 14.79C2.25 11.4559 3.5933 8.25836 5.98439 5.90079C8.37548 3.54322 11.6185 2.21875 15 2.21875ZM10.512 19.9664L5.907 19.9679C6.63656 21.2122 7.62056 22.2934 8.79652 23.1428C9.97249 23.9922 11.3147 24.5912 12.738 24.9018C11.786 23.3573 11.0379 21.6993 10.512 19.9679V19.9664ZM19.488 19.9664C18.9625 21.6977 18.215 23.3557 17.2635 24.9003C18.6868 24.5901 20.029 23.9914 21.205 23.1423C22.381 22.2932 23.365 21.2121 24.0945 19.9679H19.4895L19.488 19.9664ZM17.13 19.9664H12.87C13.365 21.4232 14.076 22.8652 15 24.2909C15.924 22.8637 16.635 21.4217 17.13 19.9664ZM17.7195 11.8321H12.2805C11.9055 13.7872 11.9055 15.7943 12.2805 17.7494H17.7195C18.0945 15.7943 18.0945 13.7872 17.7195 11.8321ZM9.9945 11.8321H4.935C4.64567 12.7921 4.49915 13.7885 4.5 14.79C4.5 15.8179 4.6515 16.8118 4.935 17.748H9.996C9.66754 15.7893 9.66754 13.7907 9.996 11.8321H9.9945ZM25.065 11.8321H20.004C20.3324 13.7908 20.3324 15.7893 20.004 17.748H25.065C25.3485 16.8118 25.5 15.8179 25.5 14.79C25.5 13.7621 25.3485 12.7697 25.065 11.8321ZM12.7365 4.67976L12.5445 4.72265C11.1596 5.0521 9.85707 5.65549 8.71584 6.49624C7.57461 7.33699 6.6185 8.39756 5.9055 9.61362H10.5105C11.01 7.94238 11.7525 6.29776 12.7365 4.67976ZM15 5.2891C14.1131 6.6397 13.3977 8.09257 12.87 9.6151H17.13C16.6023 8.09257 15.8869 6.6397 15 5.2891ZM17.262 4.67828L17.34 4.80547C18.2564 6.31388 18.9785 7.92905 19.4895 9.61362H24.0945C23.3649 8.36885 22.3808 7.28729 21.2045 6.43765C20.0283 5.58802 18.6857 4.98887 17.262 4.67828Z" fill="#EC52A0"/>
</svg>
