<svg width="30" height="31" viewBox="0 0 30 31" fill="none" xmlns="http://www.w3.org/2000/svg">
<path d="M15 2.95313C16.6744 2.95312 18.3323 3.27625 19.8792 3.90405C21.4261 4.53186 22.8317 5.45204 24.0156 6.61207C25.1996 7.7721 26.1387 9.14926 26.7795 10.6649C27.4202 12.1806 27.75 13.805 27.75 15.4456C27.75 17.0861 27.4202 18.7106 26.7795 20.2262C26.1387 21.7419 25.1996 23.119 24.0156 24.279C22.8317 25.4391 21.4261 26.3593 19.8792 26.9871C18.3323 27.6149 16.6744 27.938 15 27.938C11.6185 27.938 8.37548 26.6218 5.98439 24.279C3.5933 21.9363 2.25 18.7588 2.25 15.4456C2.25 12.1324 3.5933 8.95486 5.98439 6.61207C8.37548 4.26929 11.6185 2.95313 15 2.95313ZM10.512 20.5895L5.907 20.591C6.63656 21.8275 7.62056 22.9019 8.79652 23.7459C9.97249 24.59 11.3147 25.1852 12.738 25.4939C11.786 23.9591 11.0379 22.3115 10.512 20.591V20.5895ZM19.488 20.5895C18.9625 22.3099 18.215 23.9576 17.2635 25.4924C18.6868 25.1842 20.029 24.5893 21.205 23.7454C22.381 22.9016 23.365 21.8274 24.0945 20.591H19.4895L19.488 20.5895ZM17.13 20.5895H12.87C13.365 22.0372 14.076 23.4701 15 24.8869C15.924 23.4686 16.635 22.0357 17.13 20.5895ZM17.7195 12.5062H12.2805C11.9055 14.449 11.9055 16.4436 12.2805 18.3864H17.7195C18.0945 16.4436 18.0945 14.449 17.7195 12.5062ZM9.9945 12.5062H4.935C4.64567 13.4602 4.49915 14.4503 4.5 15.4456C4.5 16.467 4.6515 17.4546 4.935 18.385H9.996C9.66754 16.4386 9.66754 14.4525 9.996 12.5062H9.9945ZM25.065 12.5062H20.004C20.3324 14.4526 20.3324 16.4386 20.004 18.385H25.065C25.3485 17.4546 25.5 16.467 25.5 15.4456C25.5 14.4241 25.3485 13.4379 25.065 12.5062ZM12.7365 5.3987L12.5445 5.44132C11.1596 5.7687 9.85707 6.36832 8.71584 7.20379C7.57461 8.03926 6.6185 9.09318 5.9055 10.3016H10.5105C11.01 8.64086 11.7525 7.00655 12.7365 5.3987ZM15 6.00422C14.1131 7.34635 13.3977 8.79011 12.87 10.3031H17.13C16.6023 8.79011 15.8869 7.34635 15 6.00422ZM17.262 5.39723L17.34 5.52363C18.2564 7.02257 18.9785 8.62761 19.4895 10.3016H24.0945C23.3649 9.06465 22.3808 7.98988 21.2045 7.14557C20.0283 6.30126 18.6857 5.70588 17.262 5.39723Z" fill="#EC52A0"/>
</svg>
