<svg width="42" height="42" viewBox="0 0 42 42" fill="none" xmlns="http://www.w3.org/2000/svg">
<path d="M25.9999 8.25C27.6743 8.25 29.3323 8.57979 30.8792 9.22054C32.4261 9.86128 33.8316 10.8004 35.0156 11.9844C36.1995 13.1683 37.1387 14.5739 37.7794 16.1208C38.4202 17.6677 38.7499 19.3256 38.7499 21C38.7499 22.6744 38.4202 24.3323 37.7794 25.8792C37.1387 27.4261 36.1995 28.8317 35.0156 30.0156C33.8316 31.1996 32.4261 32.1387 30.8792 32.7795C29.3323 33.4202 27.6743 33.75 25.9999 33.75C22.6184 33.75 19.3754 32.4067 16.9843 30.0156C14.5932 27.6245 13.2499 24.3815 13.2499 21C13.2499 17.6185 14.5932 14.3755 16.9843 11.9844C19.3754 9.5933 22.6184 8.25 25.9999 8.25ZM21.5119 26.25L16.9069 26.2515C17.6365 27.5135 18.6205 28.6101 19.7965 29.4715C20.9724 30.333 22.3147 30.9405 23.7379 31.2555C22.7859 29.6891 22.0378 28.0075 21.5119 26.2515V26.25ZM30.4879 26.25C29.9625 28.0059 29.2149 29.6875 28.2634 31.254C29.6867 30.9394 31.029 30.3322 32.2049 29.471C33.3809 28.6098 34.3649 27.5134 35.0944 26.2515H30.4894L30.4879 26.25ZM28.1299 26.25H23.8699C24.3649 27.7275 25.0759 29.19 25.9999 30.636C26.9239 29.1885 27.6349 27.726 28.1299 26.25ZM28.7194 18H23.2804C22.9055 19.9829 22.9055 22.0186 23.2804 24.0015H28.7194C29.0944 22.0186 29.0944 19.9829 28.7194 18ZM20.9944 18H15.9349C15.6456 18.9737 15.4991 19.9842 15.4999 21C15.4999 22.0425 15.6514 23.0505 15.9349 24H20.9959C20.6675 22.0135 20.6675 19.9865 20.9959 18H20.9944ZM36.0649 18H31.0039C31.3323 19.9865 31.3323 22.0135 31.0039 24H36.0649C36.3484 23.0505 36.4999 22.0425 36.4999 21C36.4999 19.9575 36.3484 18.951 36.0649 18ZM23.7364 10.746L23.5444 10.7895C22.1596 11.1236 20.857 11.7356 19.7158 12.5883C18.5745 13.441 17.6184 14.5167 16.9054 15.75H21.5104C22.0099 14.055 22.7524 12.387 23.7364 10.746ZM25.9999 11.364C25.113 12.7338 24.3977 14.2073 23.8699 15.7515H28.1299C27.6022 14.2073 26.8868 12.7338 25.9999 11.364ZM28.2619 10.7445L28.3399 10.8735C29.2563 12.4033 29.9784 14.0415 30.4894 15.75H35.0944C34.3649 14.4875 33.3807 13.3906 32.2045 12.5289C31.0282 11.6672 29.6856 11.0595 28.2619 10.7445Z" fill="#EC52A0"/>
</svg>
