<svg width="42" height="42" viewBox="0 0 42 42" fill="none" xmlns="http://www.w3.org/2000/svg">
<path d="M25.9999 8.13281C27.6743 8.13281 29.3323 8.45798 30.8792 9.08974C32.4261 9.72151 33.8316 10.6475 35.0156 11.8149C36.1995 12.9822 37.1387 14.3681 37.7794 15.8933C38.4202 17.4185 38.7499 19.0532 38.7499 20.7041C38.7499 22.355 38.4202 23.9897 37.7794 25.5149C37.1387 27.0401 36.1995 28.426 35.0156 29.5933C33.8316 30.7607 32.4261 31.6867 30.8792 32.3184C29.3323 32.9502 27.6743 33.2754 25.9999 33.2754C22.6184 33.2754 19.3754 31.9509 16.9843 29.5933C14.5932 27.2357 13.2499 24.0382 13.2499 20.7041C13.2499 17.37 14.5932 14.1724 16.9843 11.8149C19.3754 9.45728 22.6184 8.13281 25.9999 8.13281ZM21.5119 25.8805L16.9069 25.882C17.6365 27.1263 18.6205 28.2075 19.7965 29.0569C20.9724 29.9062 22.3147 30.5052 23.7379 30.8158C22.7859 29.2714 22.0378 27.6133 21.5119 25.882V25.8805ZM30.4879 25.8805C29.9625 27.6118 29.2149 29.2698 28.2634 30.8143C29.6867 30.5042 31.029 29.9055 32.2049 29.0564C33.3809 28.2072 34.3649 27.1262 35.0944 25.882H30.4894L30.4879 25.8805ZM28.1299 25.8805H23.8699C24.3649 27.3373 25.0759 28.7793 25.9999 30.205C26.9239 28.7778 27.6349 27.3358 28.1299 25.8805ZM28.7194 17.7461H23.2804C22.9055 19.7013 22.9055 21.7084 23.2804 23.6635H28.7194C29.0944 21.7084 29.0944 19.7013 28.7194 17.7461ZM20.9944 17.7461H15.9349C15.6456 18.7062 15.4991 19.7025 15.4999 20.7041C15.4999 21.732 15.6514 22.7258 15.9349 23.662H20.9959C20.6675 21.7034 20.6675 19.7048 20.9959 17.7461H20.9944ZM36.0649 17.7461H31.0039C31.3323 19.7048 31.3323 21.7034 31.0039 23.662H36.0649C36.3484 22.7258 36.4999 21.732 36.4999 20.7041C36.4999 19.6762 36.3484 18.6838 36.0649 17.7461ZM23.7364 10.5938L23.5444 10.6367C22.1596 10.9662 20.857 11.5696 19.7158 12.4103C18.5745 13.2511 17.6184 14.3116 16.9054 15.5277H21.5104C22.0099 13.8564 22.7524 12.2118 23.7364 10.5938ZM25.9999 11.2032C25.113 12.5538 24.3977 14.0066 23.8699 15.5292H28.1299C27.6022 14.0066 26.8868 12.5538 25.9999 11.2032ZM28.2619 10.5923L28.3399 10.7195C29.2563 12.2279 29.9784 13.8431 30.4894 15.5277H35.0944C34.3649 14.2829 33.3807 13.2014 32.2045 12.3517C31.0282 11.5021 29.6856 10.9029 28.2619 10.5923Z" fill="#EC52A0"/>
</svg>
