<svg width="20" height="13" viewBox="0 0 20 13" fill="none" xmlns="http://www.w3.org/2000/svg">
<path d="M7.40285 12C12.6861 12 15.5754 7.76841 15.5754 4.09893C15.5754 3.97875 15.5728 3.85912 15.5672 3.73999C16.1294 3.34674 16.6145 2.85981 17 2.30202C16.4853 2.52321 15.9315 2.6721 15.3506 2.73923C15.9435 2.3954 16.3988 1.8516 16.6136 1.20329C16.0497 1.52669 15.4329 1.75465 14.7897 1.87736C14.2655 1.3376 13.5194 1 12.693 1C11.1068 1 9.82054 2.24361 9.82054 3.77655C9.82054 3.99447 9.84577 4.20644 9.89505 4.40973C7.5078 4.2936 5.39096 3.1886 3.97426 1.50837C3.7191 1.93213 3.58488 2.41377 3.58531 2.9041C3.58531 3.86752 4.09241 4.71804 4.86353 5.2156C4.4074 5.20215 3.96129 5.08304 3.56267 4.86828C3.56225 4.87995 3.56225 4.89131 3.56225 4.90375C3.56225 6.24861 4.55233 7.37145 5.86663 7.62589C5.61978 7.69089 5.36507 7.72376 5.10923 7.72363C4.92805 7.72351 4.74729 7.70674 4.56939 7.67353C4.93507 8.77689 5.99544 9.57981 7.25261 9.60225C6.26952 10.3472 5.0311 10.7909 3.68515 10.7909C3.45358 10.7909 3.22484 10.7782 3 10.7525C4.27121 11.5402 5.78065 11.9999 7.40299 11.9999" fill="black"/>
</svg>
