<svg width="21" height="15" viewBox="0 0 21 15" fill="none" xmlns="http://www.w3.org/2000/svg">
<path d="M16.4661 4.46454C16.3192 3.89422 15.8865 3.44508 15.337 3.29265C14.341 3.01562 10.3474 3.01562 10.3474 3.01562C10.3474 3.01562 6.35381 3.01562 5.35789 3.29265C4.80839 3.44508 4.37563 3.89422 4.2288 4.46454C3.96191 5.49832 3.96191 7.65511 3.96191 7.65511C3.96191 7.65511 3.96191 9.81191 4.2288 10.8457C4.37563 11.416 4.80839 11.8651 5.35789 12.0176C6.35381 12.2945 10.3474 12.2945 10.3474 12.2945C10.3474 12.2945 14.341 12.2945 15.337 12.0176C15.8865 11.8651 16.3192 11.4159 16.4661 10.8457C16.7329 9.81185 16.7329 7.65511 16.7329 7.65511C16.7329 7.65511 16.7329 5.49832 16.4661 4.46454Z" fill="#161616"/>
<path d="M9.04077 9.61171L12.3787 7.65359L9.04077 5.69531V9.61171Z" fill="white"/>
</svg>
