<svg width="21" height="15" viewBox="0 0 21 15" fill="none" xmlns="http://www.w3.org/2000/svg">
<path d="M16.4651 4.46454C16.3182 3.89422 15.8855 3.44508 15.336 3.29265C14.3401 3.01562 10.3464 3.01562 10.3464 3.01562C10.3464 3.01562 6.35283 3.01562 5.35691 3.29265C4.80742 3.44508 4.37465 3.89422 4.22782 4.46454C3.96094 5.49832 3.96094 7.65511 3.96094 7.65511C3.96094 7.65511 3.96094 9.81191 4.22782 10.8457C4.37465 11.416 4.80742 11.8651 5.35691 12.0176C6.35283 12.2945 10.3464 12.2945 10.3464 12.2945C10.3464 12.2945 14.3401 12.2945 15.336 12.0176C15.8855 11.8651 16.3182 11.4159 16.4651 10.8457C16.732 9.81185 16.732 7.65511 16.732 7.65511C16.732 7.65511 16.732 5.49832 16.4651 4.46454Z" fill="black"/>
<path d="M9.04102 9.61171L12.3789 7.65359L9.04102 5.69531V9.61171Z" fill="white"/>
</svg>
